<svg xmlns="http://www.w3.org/2000/svg" xmlns:xlink="http://www.w3.org/1999/xlink" width="500" zoomAndPan="magnify" viewBox="0 0 375 374.999991" height="500" preserveAspectRatio="xMidYMid meet" version="1.0"><defs><g/><clipPath id="f510cb41c2"><path d="M 29.730469 37.5 L 345.480469 37.5 L 345.480469 252 L 29.730469 252 Z M 29.730469 37.5 " clip-rule="nonzero"/></clipPath></defs><path fill="#6d6e71" d="M 117.488281 208.800781 L 121.457031 208.277344 C 119.644531 205.773438 118.066406 203.132812 116.722656 200.347656 C 111.316406 202.277344 104.582031 205.691406 101.171875 211.292969 C 95.027344 221.449219 100.277344 234.171875 100.328125 234.300781 C 100.363281 234.375 100.390625 234.457031 100.40625 234.539062 L 130.183594 234.539062 L 159.824219 229.027344 C 160.578125 228.910156 161.3125 228.71875 162.027344 228.453125 C 162.742188 228.191406 163.425781 227.859375 164.074219 227.460938 C 164.726562 227.0625 165.332031 226.605469 165.890625 226.089844 C 166.449219 225.574219 166.953125 225.007812 167.402344 224.390625 C 167.851562 223.773438 168.234375 223.121094 168.554688 222.429688 C 168.871094 221.738281 169.121094 221.023438 169.300781 220.28125 C 169.476562 219.539062 169.582031 218.789062 169.613281 218.027344 C 169.640625 217.269531 169.597656 216.511719 169.476562 215.757812 C 169.359375 215.007812 169.167969 214.273438 168.902344 213.558594 C 168.640625 212.84375 168.308594 212.164062 167.910156 211.511719 C 167.511719 210.863281 167.054688 210.257812 166.539062 209.699219 C 166.019531 209.140625 165.453125 208.636719 164.835938 208.1875 C 164.21875 207.742188 163.566406 207.359375 162.875 207.039062 C 162.179688 206.71875 161.464844 206.472656 160.722656 206.292969 C 159.984375 206.117188 159.230469 206.011719 158.46875 205.980469 C 157.707031 205.953125 156.949219 205.996094 156.199219 206.113281 L 117.835938 211.136719 C 117.523438 211.15625 117.242188 211.066406 117 210.863281 C 116.757812 210.664062 116.617188 210.410156 116.574219 210.097656 C 116.535156 209.785156 116.605469 209.5 116.789062 209.246094 C 116.972656 208.988281 117.21875 208.828125 117.527344 208.769531 Z M 117.488281 208.800781 " fill-opacity="1" fill-rule="nonzero"/><path fill="#ed1c24" d="M 208.449219 41.53125 L 140.96875 41.53125 L 123.191406 142.167969 L 226.222656 142.167969 Z M 208.449219 41.53125 " fill-opacity="1" fill-rule="nonzero"/><path fill="#d30f1e" d="M 125.441406 132.015625 L 123.765625 141.480469 L 226.796875 141.480469 L 209.023438 40.875 L 205.511719 40.875 L 219.128906 133.582031 C 219.128906 133.582031 157.183594 131.546875 125.441406 132.015625 Z M 125.441406 132.015625 " fill-opacity="1" fill-rule="nonzero"/><path fill="#ffffff" d="M 118.46875 198.488281 C 119.945312 201.679688 121.738281 204.683594 123.847656 207.5 C 123.945312 207.625 124.011719 207.765625 124.050781 207.917969 L 146.28125 205.007812 C 146.230469 204.910156 146.164062 204.820312 146.121094 204.726562 C 143.484375 199.414062 144.445312 192.960938 148.398438 189.390625 C 151.820312 186.300781 156.648438 185.796875 160.46875 185.707031 L 162.53125 185.707031 C 165.894531 185.675781 169.070312 185.648438 171.976562 184.523438 C 175.199219 183.28125 178.09375 180.015625 177.402344 176.679688 C 177.355469 176.433594 177.386719 176.195312 177.488281 175.96875 C 177.59375 175.738281 177.753906 175.558594 177.96875 175.433594 C 178.1875 175.304688 178.417969 175.25 178.671875 175.269531 C 178.921875 175.289062 179.144531 175.382812 179.335938 175.542969 C 179.53125 175.382812 179.753906 175.289062 180.003906 175.269531 C 180.253906 175.25 180.488281 175.304688 180.707031 175.433594 C 180.921875 175.558594 181.082031 175.738281 181.1875 175.96875 C 181.289062 176.195312 181.316406 176.433594 181.269531 176.679688 C 180.582031 180.011719 183.488281 183.28125 186.695312 184.523438 C 189.601562 185.648438 192.777344 185.675781 196.144531 185.707031 L 198.203125 185.707031 C 202.027344 185.796875 206.851562 186.300781 210.273438 189.390625 C 214.230469 192.960938 215.191406 199.414062 212.554688 204.71875 C 210.382812 209.101562 206.066406 212.597656 200.410156 214.554688 C 195.472656 216.261719 190.265625 216.648438 185.234375 217.019531 L 173.429688 217.019531 L 171.695312 216.886719 C 171.65625 216.921875 171.617188 216.953125 171.574219 216.980469 C 171.613281 217.816406 171.582031 218.648438 171.472656 219.480469 C 171.363281 220.308594 171.183594 221.121094 170.929688 221.921875 C 170.675781 222.71875 170.351562 223.484375 169.960938 224.226562 C 169.570312 224.964844 169.117188 225.664062 168.601562 226.320312 C 168.082031 226.980469 167.511719 227.585938 166.886719 228.144531 C 166.261719 228.699219 165.589844 229.195312 164.878906 229.632812 C 164.164062 230.070312 163.414062 230.4375 162.636719 230.742188 C 161.855469 231.042969 161.054688 231.277344 160.230469 231.433594 L 143.238281 234.597656 L 184.449219 234.597656 C 197.851562 234.488281 210.914062 232.019531 222.222656 227.378906 C 222.367188 227.324219 222.515625 227.300781 222.671875 227.304688 C 222.828125 227.308594 222.976562 227.34375 223.121094 227.40625 C 223.261719 227.46875 223.386719 227.554688 223.496094 227.667969 C 223.605469 227.777344 223.6875 227.90625 223.746094 228.046875 C 223.804688 228.191406 223.835938 228.339844 223.835938 228.496094 C 223.835938 228.652344 223.808594 228.800781 223.75 228.945312 C 223.691406 229.089844 223.609375 229.21875 223.503906 229.328125 C 223.394531 229.441406 223.273438 229.53125 223.128906 229.59375 C 217.792969 231.753906 212.308594 233.421875 206.671875 234.597656 L 303.046875 234.597656 C 303.304688 234.222656 303.539062 233.835938 303.75 233.433594 C 303.960938 233.03125 304.148438 232.617188 304.3125 232.195312 C 304.476562 231.773438 304.613281 231.339844 304.726562 230.902344 C 304.839844 230.460938 304.925781 230.019531 304.988281 229.570312 C 305.050781 229.117188 305.082031 228.667969 305.09375 228.214844 C 305.101562 227.761719 305.082031 227.308594 305.039062 226.855469 C 304.992188 226.40625 304.921875 225.957031 304.828125 225.515625 C 304.730469 225.070312 304.609375 224.632812 304.460938 224.207031 C 304.3125 223.777344 304.140625 223.359375 303.945312 222.949219 C 303.746094 222.539062 303.527344 222.144531 303.285156 221.761719 C 303.042969 221.375 302.777344 221.007812 302.492188 220.65625 C 302.207031 220.304688 301.902344 219.96875 301.574219 219.652344 C 301.25 219.335938 300.910156 219.039062 300.550781 218.761719 C 300.191406 218.484375 299.816406 218.230469 299.425781 217.996094 C 299.035156 217.761719 298.636719 217.550781 298.222656 217.363281 C 297.808594 217.179688 297.382812 217.015625 296.949219 216.878906 L 256.03125 203.855469 C 255.875 203.808594 255.734375 203.730469 255.613281 203.617188 C 252.53125 208.570312 248.785156 212.957031 244.367188 216.777344 C 244.144531 216.972656 243.882812 217.070312 243.582031 217.074219 C 243.332031 217.070312 243.105469 217 242.902344 216.859375 C 242.695312 216.714844 242.550781 216.527344 242.464844 216.292969 C 242.375 216.0625 242.363281 215.824219 242.421875 215.582031 C 242.484375 215.339844 242.609375 215.136719 242.796875 214.972656 C 254.6875 204.601562 260.96875 191.078125 260.96875 175.851562 C 260.957031 170.222656 260.199219 164.695312 258.699219 159.269531 C 257.195312 153.847656 255.003906 148.714844 252.121094 143.882812 L 122.523438 143.882812 C 119.640625 148.714844 117.449219 153.84375 115.945312 159.265625 C 114.445312 164.6875 113.6875 170.210938 113.675781 175.839844 C 113.59375 183.660156 115.152344 191.140625 118.347656 198.28125 C 118.394531 198.34375 118.433594 198.414062 118.46875 198.488281 Z M 122.851562 155.039062 C 122.851562 154.878906 122.878906 154.726562 122.941406 154.582031 C 123 154.4375 123.085938 154.308594 123.199219 154.195312 C 123.3125 154.082031 123.441406 153.996094 123.585938 153.9375 C 123.730469 153.875 123.882812 153.847656 124.042969 153.847656 L 233.207031 153.847656 C 233.367188 153.847656 233.519531 153.875 233.667969 153.933594 C 233.8125 153.996094 233.941406 154.082031 234.054688 154.191406 C 234.167969 154.304688 234.253906 154.433594 234.316406 154.582031 C 234.375 154.726562 234.40625 154.878906 234.40625 155.039062 L 234.40625 169.585938 C 234.40625 170.289062 234.335938 170.984375 234.199219 171.675781 C 234.0625 172.363281 233.855469 173.035156 233.585938 173.683594 C 233.316406 174.332031 232.988281 174.949219 232.597656 175.535156 C 232.207031 176.117188 231.761719 176.660156 231.265625 177.15625 C 230.765625 177.652344 230.226562 178.097656 229.640625 178.488281 C 229.058594 178.878906 228.441406 179.210938 227.789062 179.480469 C 227.140625 179.75 226.46875 179.953125 225.78125 180.089844 C 225.089844 180.230469 224.394531 180.296875 223.691406 180.300781 L 200.015625 180.300781 C 199.3125 180.296875 198.617188 180.230469 197.925781 180.089844 C 197.234375 179.953125 196.566406 179.75 195.917969 179.480469 C 195.265625 179.210938 194.648438 178.878906 194.066406 178.488281 C 193.480469 178.097656 192.9375 177.652344 192.441406 177.15625 C 191.945312 176.660156 191.5 176.117188 191.109375 175.535156 C 190.71875 174.949219 190.386719 174.332031 190.117188 173.683594 C 189.847656 173.035156 189.644531 172.363281 189.507812 171.675781 C 189.371094 170.984375 189.300781 170.289062 189.300781 169.585938 L 189.300781 165.082031 L 168.113281 165.082031 L 168.113281 169.585938 C 168.113281 170.292969 168.042969 170.988281 167.90625 171.679688 C 167.765625 172.371094 167.5625 173.039062 167.292969 173.691406 C 167.023438 174.34375 166.691406 174.960938 166.300781 175.546875 C 165.910156 176.132812 165.464844 176.671875 164.964844 177.171875 C 164.46875 177.667969 163.925781 178.113281 163.339844 178.507812 C 162.753906 178.898438 162.136719 179.226562 161.484375 179.5 C 160.832031 179.769531 160.164062 179.972656 159.472656 180.109375 C 158.78125 180.25 158.082031 180.316406 157.375 180.320312 L 133.585938 180.320312 C 132.882812 180.316406 132.183594 180.25 131.492188 180.109375 C 130.800781 179.972656 130.128906 179.769531 129.476562 179.5 C 128.828125 179.226562 128.207031 178.898438 127.621094 178.507812 C 127.035156 178.113281 126.496094 177.667969 125.996094 177.171875 C 125.496094 176.671875 125.054688 176.132812 124.660156 175.546875 C 124.269531 174.960938 123.9375 174.34375 123.667969 173.691406 C 123.398438 173.039062 123.195312 172.371094 123.058594 171.679688 C 122.917969 170.988281 122.851562 170.292969 122.851562 169.585938 Z M 122.851562 155.039062 " fill-opacity="1" fill-rule="nonzero"/><path fill="#e6e7e8" d="M 233.207031 153.847656 C 233.367188 153.847656 233.519531 153.875 233.667969 153.933594 C 233.8125 153.996094 233.941406 154.082031 234.054688 154.191406 C 234.167969 154.304688 234.253906 154.433594 234.316406 154.582031 C 234.375 154.726562 234.40625 154.878906 234.40625 155.039062 L 234.40625 169.585938 C 234.410156 171.765625 233.796875 173.757812 232.578125 175.5625 C 231.199219 197.515625 218.882812 223.066406 169.664062 224.726562 C 169.164062 225.589844 168.578125 226.390625 167.90625 227.128906 C 167.234375 227.867188 166.488281 228.523438 165.675781 229.101562 C 164.863281 229.679688 163.996094 230.167969 163.078125 230.5625 C 162.160156 230.953125 161.210938 231.246094 160.230469 231.433594 L 143.238281 234.597656 L 184.449219 234.597656 C 197.851562 234.488281 210.914062 232.019531 222.222656 227.378906 C 222.367188 227.324219 222.515625 227.300781 222.671875 227.304688 C 222.828125 227.308594 222.976562 227.34375 223.121094 227.40625 C 223.261719 227.46875 223.386719 227.554688 223.496094 227.667969 C 223.605469 227.777344 223.6875 227.90625 223.746094 228.046875 C 223.804688 228.191406 223.835938 228.339844 223.835938 228.496094 C 223.835938 228.652344 223.808594 228.800781 223.75 228.945312 C 223.691406 229.089844 223.609375 229.21875 223.503906 229.328125 C 223.394531 229.441406 223.273438 229.53125 223.128906 229.59375 C 217.792969 231.753906 212.308594 233.421875 206.671875 234.597656 L 243.542969 234.597656 L 254.5 226.753906 C 254.5 226.753906 259.082031 215.8125 263.203125 206.152344 L 256.019531 203.867188 C 255.863281 203.820312 255.722656 203.742188 255.601562 203.628906 C 252.519531 208.585938 248.769531 212.972656 244.355469 216.789062 C 244.128906 216.984375 243.867188 217.082031 243.570312 217.085938 C 243.320312 217.085938 243.09375 217.011719 242.886719 216.871094 C 242.683594 216.730469 242.539062 216.539062 242.449219 216.308594 C 242.363281 216.074219 242.351562 215.835938 242.410156 215.59375 C 242.472656 215.351562 242.597656 215.152344 242.785156 214.988281 C 254.671875 204.613281 260.957031 191.089844 260.957031 175.863281 C 260.945312 170.234375 260.191406 164.707031 258.691406 159.277344 C 257.195312 153.851562 255.003906 148.71875 252.121094 143.882812 L 228.203125 143.882812 C 229.320312 147.148438 230.210938 150.472656 230.882812 153.859375 Z M 233.207031 153.847656 " fill-opacity="1" fill-rule="nonzero"/><path fill="#ffe6bc" d="M 133.585938 177.90625 L 157.375 177.90625 C 157.921875 177.902344 158.464844 177.84375 159 177.734375 C 159.535156 177.625 160.054688 177.464844 160.558594 177.253906 C 161.0625 177.042969 161.539062 176.785156 161.992188 176.480469 C 162.445312 176.175781 162.867188 175.832031 163.25 175.445312 C 163.636719 175.058594 163.980469 174.636719 164.285156 174.183594 C 164.589844 173.730469 164.84375 173.25 165.054688 172.746094 C 165.265625 172.242188 165.421875 171.722656 165.53125 171.1875 C 165.636719 170.652344 165.695312 170.113281 165.695312 169.566406 L 165.695312 163.882812 C 165.695312 163.699219 165.734375 163.527344 165.8125 163.363281 C 165.890625 163.199219 166 163.0625 166.144531 162.949219 C 166.289062 162.835938 166.449219 162.757812 166.625 162.71875 C 166.804688 162.679688 166.980469 162.683594 167.160156 162.722656 C 167.246094 162.703125 167.335938 162.691406 167.429688 162.691406 L 189.539062 162.691406 C 189.703125 162.691406 189.863281 162.722656 190.015625 162.789062 C 190.164062 162.722656 190.320312 162.691406 190.484375 162.691406 C 190.644531 162.691406 190.796875 162.722656 190.945312 162.78125 C 191.089844 162.839844 191.21875 162.925781 191.332031 163.039062 C 191.445312 163.152344 191.53125 163.28125 191.59375 163.425781 C 191.652344 163.570312 191.683594 163.726562 191.683594 163.882812 L 191.683594 169.585938 C 191.683594 170.132812 191.738281 170.671875 191.847656 171.207031 C 191.953125 171.746094 192.113281 172.265625 192.320312 172.769531 C 192.53125 173.273438 192.789062 173.75 193.089844 174.207031 C 193.394531 174.660156 193.738281 175.078125 194.125 175.464844 C 194.511719 175.851562 194.933594 176.195312 195.386719 176.5 C 195.839844 176.800781 196.320312 177.058594 196.824219 177.269531 C 197.328125 177.476562 197.851562 177.636719 198.386719 177.742188 C 198.921875 177.851562 199.464844 177.902344 200.007812 177.90625 L 223.691406 177.90625 C 224.238281 177.902344 224.777344 177.851562 225.316406 177.742188 C 225.851562 177.636719 226.371094 177.480469 226.875 177.269531 C 227.382812 177.0625 227.863281 176.804688 228.316406 176.5 C 228.769531 176.199219 229.191406 175.851562 229.578125 175.46875 C 229.964844 175.082031 230.308594 174.660156 230.613281 174.207031 C 230.917969 173.753906 231.175781 173.273438 231.382812 172.769531 C 231.59375 172.265625 231.753906 171.746094 231.859375 171.210938 C 231.96875 170.675781 232.023438 170.132812 232.023438 169.585938 L 232.023438 156.234375 L 125.242188 156.234375 L 125.242188 169.566406 C 125.242188 170.113281 125.296875 170.65625 125.40625 171.191406 C 125.515625 171.726562 125.675781 172.25 125.886719 172.753906 C 126.09375 173.257812 126.351562 173.738281 126.65625 174.191406 C 126.960938 174.644531 127.308594 175.066406 127.695312 175.453125 C 128.082031 175.839844 128.503906 176.1875 128.957031 176.488281 C 129.410156 176.792969 129.890625 177.050781 130.398438 177.261719 C 130.902344 177.472656 131.421875 177.632812 131.960938 177.738281 C 132.496094 177.847656 133.039062 177.902344 133.585938 177.90625 Z M 133.585938 177.90625 " fill-opacity="1" fill-rule="nonzero"/><path fill="#ffe6bc" d="M 306.734375 223.4375 C 307.367188 225.273438 307.609375 227.160156 307.453125 229.097656 C 307.300781 231.035156 306.761719 232.859375 305.84375 234.570312 L 328.539062 234.570312 C 328.476562 234.402344 328.460938 234.226562 328.488281 234.050781 C 328.527344 233.601562 328.527344 233.152344 328.480469 232.703125 C 328.4375 232.257812 328.351562 231.816406 328.226562 231.382812 C 328.097656 230.953125 327.933594 230.535156 327.726562 230.136719 C 327.519531 229.734375 327.28125 229.355469 327.003906 229 C 326.726562 228.644531 326.417969 228.320312 326.078125 228.023438 C 325.742188 227.722656 325.378906 227.460938 324.992188 227.230469 C 324.601562 227.003906 324.195312 226.8125 323.773438 226.660156 C 323.347656 226.507812 322.914062 226.394531 322.46875 226.324219 C 322.101562 226.277344 321.734375 226.265625 321.367188 226.253906 C 320.695312 226.246094 320.035156 226.179688 319.375 226.054688 C 318.664062 225.945312 318.023438 225.667969 317.457031 225.222656 C 316.890625 224.777344 316.472656 224.222656 316.199219 223.554688 C 315.753906 222.269531 316.199219 221.058594 316.578125 220.078125 C 316.765625 219.644531 316.902344 219.195312 316.992188 218.734375 C 317.222656 217.058594 315.425781 215.515625 313.660156 215.242188 C 311.308594 214.953125 309.027344 215.238281 306.816406 216.09375 C 306.640625 216.164062 306.453125 216.1875 306.265625 216.167969 C 306.074219 216.152344 305.898438 216.089844 305.738281 215.988281 C 305.578125 215.886719 305.449219 215.753906 305.351562 215.589844 C 305.253906 215.425781 305.199219 215.246094 305.1875 215.058594 C 305.144531 214.382812 304.988281 213.730469 304.726562 213.109375 C 304.460938 212.484375 304.097656 211.921875 303.640625 211.421875 C 303.183594 210.925781 302.652344 210.515625 302.054688 210.195312 C 301.457031 209.878906 300.824219 209.667969 300.152344 209.566406 C 299.484375 209.464844 298.816406 209.476562 298.148438 209.605469 C 297.484375 209.730469 296.855469 209.964844 296.269531 210.308594 C 295.6875 210.648438 295.171875 211.078125 294.734375 211.59375 C 294.296875 212.109375 293.957031 212.6875 293.714844 213.320312 L 297.660156 214.574219 C 298.710938 214.902344 299.710938 215.351562 300.660156 215.914062 C 301.605469 216.480469 302.472656 217.148438 303.261719 217.917969 C 304.050781 218.6875 304.738281 219.539062 305.324219 220.472656 C 305.910156 221.40625 306.378906 222.394531 306.734375 223.4375 Z M 306.734375 223.4375 " fill-opacity="1" fill-rule="nonzero"/><path fill="#d30f1e" d="M 251.367188 141.480469 L 233.589844 40.84375 L 211.453125 40.84375 L 229.230469 141.480469 Z M 251.367188 141.480469 " fill-opacity="1" fill-rule="nonzero"/><path fill="#ffe6bc" d="M 41.753906 234.570312 L 97.847656 234.570312 C 96.757812 231.632812 93.105469 220.015625 99.136719 210.105469 C 102.863281 203.953125 109.976562 200.277344 115.730469 198.195312 C 114.292969 194.820312 113.21875 191.335938 112.507812 187.734375 C 112.074219 187.933594 111.667969 187.886719 111.289062 187.601562 C 109.214844 186.003906 106.824219 184.484375 104.8125 185.289062 C 103.171875 185.933594 102.328125 187.980469 101.5 189.945312 L 101.386719 190.226562 C 99.921875 193.722656 97.953125 195.558594 95.523438 195.679688 C 93.757812 195.769531 92.25 194.855469 90.914062 194.050781 C 89.582031 193.246094 88.535156 192.621094 87.488281 192.859375 C 86.332031 193.117188 85.617188 194.515625 85.554688 195.691406 C 85.449219 197.089844 85.914062 198.503906 86.398438 200.011719 L 86.492188 200.320312 C 87.046875 202.039062 87.601562 204.035156 87.195312 206.03125 C 87.039062 206.808594 86.609375 207.382812 85.90625 207.757812 C 83.917969 208.910156 80.570312 207.847656 80.199219 207.726562 C 79.824219 207.601562 79.484375 207.46875 79.121094 207.332031 C 77.832031 206.855469 76.621094 206.40625 75.570312 206.6875 C 74.171875 207.066406 73.398438 208.773438 73.375 210.175781 C 73.34375 211.941406 74.140625 213.761719 74.84375 215.378906 C 74.90625 215.519531 74.9375 215.664062 74.945312 215.8125 C 74.949219 215.964844 74.929688 216.113281 74.878906 216.253906 C 74.828125 216.398438 74.753906 216.527344 74.652344 216.640625 C 74.554688 216.757812 74.4375 216.847656 74.300781 216.917969 C 72.15625 218.023438 69.6875 216.867188 68.089844 215.410156 C 66.890625 214.324219 65.640625 213.359375 64.636719 213.699219 C 64.007812 214.03125 63.492188 214.492188 63.097656 215.082031 C 62.335938 216.003906 61.464844 217.015625 60.027344 217.285156 C 58.199219 217.585938 56.851562 216.390625 55.777344 215.425781 C 55.035156 214.78125 54.339844 214.136719 53.636719 214.027344 C 53.167969 213.960938 52.75 214.082031 52.386719 214.386719 C 51.644531 215 51.214844 215.785156 51.097656 216.738281 C 51.046875 218.066406 51.214844 219.363281 51.605469 220.632812 C 51.742188 221.21875 51.882812 221.796875 51.992188 222.378906 C 52.316406 224.097656 52.523438 227.261719 50.296875 229.164062 C 48.917969 230.347656 47.136719 230.566406 45.433594 230.683594 C 44.113281 230.773438 42.746094 230.867188 41.84375 231.542969 C 41.414062 231.886719 41.183594 232.335938 41.15625 232.882812 C 41.121094 233.125 41.195312 233.328125 41.375 233.496094 C 41.695312 233.785156 41.824219 234.144531 41.753906 234.570312 Z M 41.753906 234.570312 " fill-opacity="1" fill-rule="nonzero"/><path fill="#c49a6c" d="M 184.453125 236.964844 L 32.953125 236.964844 L 32.953125 248.667969 L 342.324219 248.667969 L 342.324219 236.964844 Z M 184.453125 236.964844 " fill-opacity="1" fill-rule="nonzero"/><path fill="#ffe6bc" d="M 175 214.554688 L 174.683594 214.652344 L 175.972656 214.652344 C 175.914062 214.613281 175.851562 214.59375 175.792969 214.554688 C 175.527344 214.457031 175.265625 214.457031 175 214.554688 Z M 175 214.554688 " fill-opacity="1" fill-rule="nonzero"/><path fill="#232323" d="M 179.871094 214.652344 L 185.1875 214.652344 C 190.054688 214.292969 195.078125 213.910156 199.714844 212.316406 C 204.769531 210.5625 208.605469 207.5 210.5 203.683594 C 212.632812 199.382812 211.878906 194.023438 208.753906 191.179688 C 205.917969 188.605469 201.664062 188.199219 198.230469 188.121094 C 197.585938 188.121094 196.882812 188.121094 196.207031 188.089844 C 192.773438 188.089844 189.230469 188.03125 185.898438 186.742188 C 184.433594 186.1875 183.140625 185.367188 182.007812 184.285156 C 180.878906 183.207031 180.003906 181.945312 179.382812 180.511719 C 178.761719 181.949219 177.886719 183.207031 176.753906 184.289062 C 175.621094 185.367188 174.324219 186.1875 172.859375 186.742188 C 169.550781 188.03125 166 188.03125 162.550781 188.089844 C 161.90625 188.089844 161.199219 188.089844 160.527344 188.121094 C 157.117188 188.199219 152.839844 188.617188 150.003906 191.1875 C 146.878906 194.003906 146.136719 199.382812 148.257812 203.683594 C 148.433594 204.023438 148.632812 204.359375 148.832031 204.691406 L 155.386719 203.835938 C 153.953125 201.472656 153.285156 197.328125 155.238281 195.234375 C 155.496094 194.96875 155.773438 194.730469 156.074219 194.515625 C 156.375 194.296875 156.691406 194.109375 157.023438 193.953125 C 157.355469 193.792969 157.703125 193.664062 158.058594 193.566406 C 158.414062 193.46875 158.777344 193.402344 159.144531 193.371094 C 159.511719 193.335938 159.878906 193.335938 160.25 193.367188 C 160.617188 193.398438 160.980469 193.464844 161.335938 193.5625 C 161.691406 193.65625 162.039062 193.785156 162.371094 193.941406 C 162.707031 194.101562 163.023438 194.285156 163.324219 194.5 C 164.792969 195.597656 165.765625 197.316406 166.21875 199.652344 C 168.136719 199.035156 170.101562 198.832031 172.105469 199.054688 C 172.925781 199.160156 173.691406 199.425781 174.402344 199.847656 C 175.109375 200.265625 175.710938 200.808594 176.199219 201.472656 C 176.566406 201.964844 176.820312 202.507812 176.957031 203.105469 C 177.09375 203.703125 177.101562 204.304688 176.984375 204.90625 C 176.925781 205.15625 176.851562 205.40625 176.765625 205.652344 C 176.671875 205.890625 176.613281 206.140625 176.597656 206.398438 C 176.597656 206.664062 177.050781 207.003906 177.609375 207.230469 C 177.816406 207.3125 178.027344 207.382812 178.253906 207.453125 C 179.019531 207.667969 179.722656 208.015625 180.355469 208.496094 C 180.722656 208.816406 181.019531 209.191406 181.242188 209.621094 C 181.46875 210.050781 181.613281 210.503906 181.667969 210.988281 C 181.722656 211.46875 181.691406 211.945312 181.570312 212.414062 C 181.445312 212.886719 181.246094 213.316406 180.960938 213.710938 C 180.660156 214.097656 180.300781 214.414062 179.871094 214.652344 Z M 179.871094 214.652344 " fill-opacity="1" fill-rule="nonzero"/><path fill="#ffe6bc" d="M 179.039062 212.25 C 179.242188 211.945312 179.324219 211.609375 179.28125 211.242188 C 179.238281 210.878906 179.082031 210.570312 178.816406 210.320312 C 178.40625 210.027344 177.960938 209.8125 177.476562 209.675781 C 177.222656 209.589844 176.980469 209.507812 176.734375 209.410156 C 175.277344 208.832031 174.363281 207.816406 174.226562 206.625 C 174.1875 206.019531 174.277344 205.4375 174.496094 204.871094 C 174.558594 204.707031 174.609375 204.542969 174.644531 204.371094 C 174.746094 203.800781 174.617188 203.285156 174.257812 202.824219 C 173.648438 202.007812 172.835938 201.527344 171.824219 201.382812 C 169.710938 201.164062 167.6875 201.488281 165.746094 202.355469 C 165.570312 202.4375 165.386719 202.472656 165.191406 202.464844 C 164.996094 202.453125 164.816406 202.402344 164.644531 202.304688 C 164.476562 202.207031 164.339844 202.078125 164.234375 201.914062 C 164.132812 201.75 164.070312 201.570312 164.050781 201.378906 C 163.902344 199.730469 163.40625 197.515625 161.898438 196.40625 C 161.53125 196.152344 161.125 195.96875 160.691406 195.855469 C 160.257812 195.746094 159.816406 195.707031 159.367188 195.75 C 158.921875 195.789062 158.492188 195.902344 158.085938 196.09375 C 157.679688 196.28125 157.316406 196.535156 156.996094 196.851562 C 155.886719 198.042969 156.527344 201.628906 157.777344 203.070312 C 157.9375 203.253906 158.03125 203.46875 158.054688 203.714844 C 158.796875 203.738281 159.53125 203.824219 160.261719 203.96875 C 160.992188 204.109375 161.703125 204.308594 162.402344 204.566406 C 163.101562 204.820312 163.773438 205.128906 164.421875 205.492188 C 165.070312 205.855469 165.6875 206.265625 166.269531 206.726562 C 166.851562 207.1875 167.398438 207.691406 167.898438 208.238281 C 168.402344 208.785156 168.859375 209.367188 169.273438 209.984375 C 169.683594 210.605469 170.042969 211.25 170.351562 211.925781 C 170.65625 212.601562 170.910156 213.296875 171.109375 214.015625 C 172.085938 213.152344 173.203125 212.554688 174.464844 212.226562 C 175.402344 211.945312 176.285156 212.0625 177.113281 212.574219 C 177.433594 212.761719 177.773438 212.824219 178.136719 212.761719 C 178.5 212.703125 178.800781 212.53125 179.039062 212.25 Z M 179.039062 212.25 " fill-opacity="1" fill-rule="nonzero"/><path fill="#ff7d87" d="M 173.601562 199.425781 C 174.652344 199.855469 175.511719 200.53125 176.179688 201.449219 C 176.546875 201.9375 176.800781 202.484375 176.9375 203.082031 C 177.074219 203.679688 177.082031 204.277344 176.964844 204.878906 C 176.90625 205.132812 176.832031 205.378906 176.746094 205.625 C 176.652344 205.867188 176.597656 206.113281 176.578125 206.371094 C 176.578125 206.636719 177.03125 206.976562 177.589844 207.203125 C 177.796875 207.285156 178.011719 207.359375 178.234375 207.429688 C 179 207.644531 179.703125 207.992188 180.335938 208.472656 C 180.703125 208.789062 181 209.164062 181.226562 209.59375 C 181.449219 210.023438 181.59375 210.480469 181.648438 210.960938 C 181.703125 211.445312 181.671875 211.921875 181.550781 212.390625 C 181.425781 212.859375 181.226562 213.292969 180.941406 213.6875 C 180.640625 214.085938 180.269531 214.40625 179.832031 214.652344 L 185.148438 214.652344 C 190.015625 214.292969 195.042969 213.910156 199.675781 212.316406 C 204.734375 210.5625 208.566406 207.5 210.460938 203.683594 C 211.222656 202.152344 211.621094 200.535156 211.664062 198.832031 C 211.703125 197.125 211.382812 195.492188 210.699219 193.929688 C 206.277344 192.402344 201.726562 191.648438 197.046875 191.667969 C 187.605469 191.667969 179.125 194.695312 173.601562 199.425781 Z M 173.601562 199.425781 " fill-opacity="1" fill-rule="nonzero"/><path fill="#ffffff" d="M 155.589844 40.84375 L 138.816406 141.480469 L 123.765625 141.480469 L 141.542969 40.84375 Z M 155.589844 40.84375 " fill-opacity="1" fill-rule="nonzero"/><path fill="#ffffff" d="M 195.542969 40.84375 L 212.3125 141.480469 L 227.363281 141.480469 L 209.585938 40.84375 Z M 195.542969 40.84375 " fill-opacity="1" fill-rule="nonzero"/><path fill="#e6e7e8" d="M 223.910156 40.84375 L 240.675781 141.480469 L 250.949219 141.480469 L 233.167969 40.84375 Z M 223.910156 40.84375 " fill-opacity="1" fill-rule="nonzero"/><path fill="#ffffff" d="M 169.898438 40.84375 L 162.136719 141.480469 L 188.429688 141.480469 L 180.671875 40.84375 Z M 169.898438 40.84375 " fill-opacity="1" fill-rule="nonzero"/><path fill="#6d6e71" d="M 214.765625 148.824219 C 209.917969 149.546875 205.425781 151.21875 201.292969 153.847656 L 233.207031 153.847656 C 233.367188 153.847656 233.519531 153.875 233.667969 153.933594 C 233.8125 153.996094 233.941406 154.082031 234.054688 154.191406 C 234.167969 154.304688 234.253906 154.433594 234.316406 154.582031 C 234.375 154.726562 234.40625 154.878906 234.40625 155.039062 L 234.40625 169.585938 C 234.40625 170.289062 234.335938 170.984375 234.199219 171.675781 C 234.0625 172.363281 233.855469 173.035156 233.585938 173.683594 C 233.316406 174.332031 232.988281 174.949219 232.597656 175.535156 C 232.207031 176.117188 231.761719 176.660156 231.265625 177.15625 C 230.765625 177.652344 230.226562 178.097656 229.640625 178.488281 C 229.058594 178.878906 228.441406 179.210938 227.789062 179.480469 C 227.140625 179.75 226.46875 179.953125 225.78125 180.089844 C 225.089844 180.230469 224.394531 180.296875 223.691406 180.300781 L 200.015625 180.300781 C 198.851562 180.300781 197.71875 180.117188 196.617188 179.746094 C 195.511719 179.375 194.5 178.839844 193.570312 178.136719 C 194.429688 179.65625 195.542969 180.957031 196.917969 182.039062 C 200.027344 184.464844 204.003906 185.367188 207.871094 186.195312 L 227.957031 190.527344 C 232.15625 191.429688 236.546875 192.339844 240.703125 191.257812 C 248.292969 189.28125 252.914062 180.871094 252.566406 173.042969 C 252.269531 166.34375 248.488281 156.164062 242.460938 152.410156 C 234.941406 147.703125 223.238281 147.402344 214.765625 148.824219 Z M 214.765625 148.824219 " fill-opacity="1" fill-rule="nonzero"/><path fill="#58595b" d="M 230.902344 153.847656 L 233.207031 153.847656 C 233.367188 153.847656 233.519531 153.875 233.667969 153.933594 C 233.8125 153.996094 233.941406 154.082031 234.054688 154.191406 C 234.167969 154.304688 234.253906 154.433594 234.316406 154.582031 C 234.375 154.726562 234.40625 154.878906 234.40625 155.039062 L 234.40625 169.585938 C 234.40625 169.921875 234.40625 170.230469 234.355469 170.570312 C 234.355469 170.667969 234.355469 170.765625 234.324219 170.863281 C 234.324219 171.101562 234.257812 171.332031 234.214844 171.5625 C 234.214844 171.660156 234.179688 171.757812 234.160156 171.847656 C 234.097656 172.15625 234.019531 172.464844 233.921875 172.765625 C 233.828125 173.058594 233.722656 173.339844 233.609375 173.625 L 233.492188 173.886719 C 233.402344 174.09375 233.296875 174.300781 233.195312 174.5 C 233.148438 174.582031 233.113281 174.667969 233.058594 174.757812 C 232.910156 175.019531 232.757812 175.285156 232.589844 175.535156 C 232.296875 180.785156 231.300781 185.898438 229.597656 190.875 C 233.304688 191.644531 237.113281 192.210938 240.746094 191.269531 C 248.339844 189.292969 252.957031 180.886719 252.609375 173.058594 C 252.3125 166.355469 248.53125 156.175781 242.507812 152.425781 C 238.886719 150.171875 234.316406 148.933594 229.617188 148.40625 C 230.011719 149.90625 230.464844 151.742188 230.902344 153.847656 Z M 230.902344 153.847656 " fill-opacity="1" fill-rule="nonzero"/><path fill="#6d6e71" d="M 151.867188 186.195312 C 155.734375 185.367188 159.734375 184.464844 162.820312 182.039062 C 166.902344 178.859375 168.761719 173.320312 168.085938 168.191406 L 168.085938 169.566406 C 168.085938 170.273438 168.015625 170.96875 167.878906 171.660156 C 167.742188 172.351562 167.539062 173.023438 167.265625 173.671875 C 166.996094 174.324219 166.667969 174.941406 166.273438 175.527344 C 165.882812 176.113281 165.4375 176.652344 164.941406 177.152344 C 164.441406 177.648438 163.898438 178.09375 163.3125 178.488281 C 162.726562 178.878906 162.109375 179.210938 161.457031 179.480469 C 160.808594 179.75 160.136719 179.953125 159.445312 180.089844 C 158.753906 180.230469 158.054688 180.296875 157.351562 180.300781 L 133.585938 180.300781 C 132.882812 180.296875 132.183594 180.230469 131.492188 180.089844 C 130.800781 179.953125 130.128906 179.75 129.476562 179.480469 C 128.828125 179.210938 128.207031 178.878906 127.621094 178.488281 C 127.035156 178.09375 126.496094 177.648438 125.996094 177.152344 C 125.496094 176.652344 125.054688 176.113281 124.660156 175.527344 C 124.269531 174.941406 123.9375 174.324219 123.667969 173.671875 C 123.398438 173.023438 123.195312 172.351562 123.058594 171.660156 C 122.917969 170.96875 122.851562 170.273438 122.851562 169.566406 L 122.851562 155.039062 C 122.851562 154.878906 122.878906 154.726562 122.941406 154.582031 C 123 154.4375 123.085938 154.308594 123.199219 154.195312 C 123.3125 154.082031 123.441406 153.996094 123.585938 153.9375 C 123.730469 153.875 123.882812 153.847656 124.042969 153.847656 L 158.484375 153.847656 C 154.351562 151.21875 149.863281 149.546875 145.015625 148.824219 C 137.035156 147.484375 126.183594 147.679688 118.628906 151.644531 C 115.355469 159.375 113.714844 167.433594 113.699219 175.824219 C 113.683594 180.511719 114.242188 185.128906 115.375 189.679688 C 116.515625 190.386719 117.734375 190.910156 119.027344 191.257812 C 123.191406 192.339844 127.582031 191.429688 131.78125 190.527344 Z M 151.867188 186.195312 " fill-opacity="1" fill-rule="nonzero"/><path fill="#6d6e71" d="M 296.949219 216.851562 L 256.03125 203.828125 C 255.875 203.78125 255.734375 203.703125 255.613281 203.589844 C 252.53125 208.546875 248.785156 212.933594 244.367188 216.75 C 244.144531 216.945312 243.882812 217.042969 243.582031 217.046875 C 243.21875 217.046875 242.917969 216.910156 242.679688 216.632812 C 242.519531 216.449219 242.421875 216.234375 242.398438 215.992188 C 237.066406 221.375 230.886719 225.484375 223.859375 228.320312 C 223.886719 228.582031 223.832031 228.824219 223.699219 229.050781 C 223.5625 229.277344 223.375 229.441406 223.128906 229.542969 C 220.628906 230.558594 218.050781 231.472656 215.398438 232.285156 C 214.40625 232.929688 213.417969 233.535156 212.40625 234.113281 C 212.175781 234.25 211.9375 234.398438 211.703125 234.542969 L 303.046875 234.542969 C 303.304688 234.171875 303.539062 233.78125 303.75 233.382812 C 303.960938 232.980469 304.148438 232.566406 304.3125 232.144531 C 304.476562 231.722656 304.613281 231.289062 304.726562 230.851562 C 304.839844 230.410156 304.925781 229.964844 304.988281 229.515625 C 305.050781 229.066406 305.082031 228.617188 305.09375 228.164062 C 305.101562 227.707031 305.082031 227.257812 305.039062 226.804688 C 304.992188 226.351562 304.921875 225.90625 304.828125 225.460938 C 304.730469 225.019531 304.609375 224.582031 304.460938 224.152344 C 304.3125 223.726562 304.140625 223.304688 303.945312 222.898438 C 303.746094 222.488281 303.527344 222.09375 303.285156 221.707031 C 303.042969 221.324219 302.777344 220.957031 302.492188 220.605469 C 302.207031 220.253906 301.902344 219.917969 301.574219 219.601562 C 301.25 219.285156 300.910156 218.988281 300.550781 218.710938 C 300.191406 218.433594 299.816406 218.175781 299.425781 217.945312 C 299.035156 217.710938 298.636719 217.5 298.222656 217.3125 C 297.808594 217.125 297.382812 216.964844 296.949219 216.828125 Z M 296.949219 216.851562 " fill-opacity="1" fill-rule="nonzero"/><path fill="#e6e7e8" d="M 140.410156 131.953125 L 138.816406 141.480469 L 123.773438 141.480469 L 125.445312 132.015625 C 129.917969 131.953125 134.992188 131.9375 140.410156 131.953125 Z M 140.410156 131.953125 " fill-opacity="1" fill-rule="nonzero"/><path fill="#e6e7e8" d="M 227.363281 141.480469 L 212.3125 141.480469 L 210.949219 133.324219 L 211.105469 133.324219 C 211.597656 133.335938 212.085938 133.296875 212.570312 133.207031 C 213.054688 133.113281 213.523438 132.96875 213.976562 132.773438 C 214.425781 132.578125 214.851562 132.335938 215.253906 132.046875 C 215.652344 131.757812 216.015625 131.429688 216.339844 131.0625 C 216.667969 130.691406 216.953125 130.292969 217.191406 129.863281 C 217.429688 129.433594 217.621094 128.980469 217.757812 128.507812 C 217.898438 128.039062 217.988281 127.554688 218.019531 127.066406 C 218.054688 126.574219 218.035156 126.085938 217.960938 125.597656 L 205.511719 40.875 L 209.589844 40.875 Z M 227.363281 141.480469 " fill-opacity="1" fill-rule="nonzero"/><path fill="#e6e7e8" d="M 188.429688 141.480469 L 162.132812 141.480469 L 162.855469 132.191406 C 171.410156 132.332031 179.976562 132.519531 187.753906 132.710938 Z M 188.429688 141.480469 " fill-opacity="1" fill-rule="nonzero"/><path fill="#e6e7e8" d="M 140.410156 131.953125 L 138.816406 141.480469 L 123.773438 141.480469 L 125.433594 132.015625 C 129.917969 131.953125 134.992188 131.9375 140.410156 131.953125 Z M 140.410156 131.953125 " fill-opacity="1" fill-rule="nonzero"/><path fill="#58595b" d="M 304.238281 232.285156 C 296.640625 231.949219 289.238281 230.570312 282.035156 228.144531 C 277.019531 226.453125 272.011719 224.152344 268.558594 220.15625 C 265.433594 216.542969 263.898438 211.265625 265.480469 206.84375 L 256.007812 203.828125 C 255.847656 203.78125 255.710938 203.703125 255.585938 203.589844 C 252.507812 208.546875 248.757812 212.933594 244.34375 216.75 C 244.117188 216.945312 243.855469 217.042969 243.558594 217.046875 C 243.195312 217.046875 242.894531 216.910156 242.65625 216.632812 C 242.492188 216.449219 242.398438 216.234375 242.371094 215.992188 C 237.042969 221.375 230.863281 225.484375 223.832031 228.320312 C 223.859375 228.582031 223.808594 228.824219 223.671875 229.050781 C 223.539062 229.277344 223.347656 229.441406 223.105469 229.542969 C 220.605469 230.558594 218.027344 231.472656 215.371094 232.285156 C 214.378906 232.929688 213.394531 233.535156 212.382812 234.113281 C 212.148438 234.25 211.910156 234.398438 211.679688 234.542969 L 303.046875 234.542969 C 303.527344 233.835938 303.925781 233.082031 304.238281 232.285156 Z M 304.238281 232.285156 " fill-opacity="1" fill-rule="nonzero"/><path fill="#e2c191" d="M 232.015625 169.585938 L 232.015625 156.234375 L 226.796875 156.234375 L 226.796875 170.070312 L 200.761719 174.136719 C 200.761719 174.136719 194.5625 175.324219 191.691406 169.632812 C 191.691406 170.179688 191.746094 170.71875 191.851562 171.253906 C 191.960938 171.789062 192.117188 172.308594 192.328125 172.8125 C 192.535156 173.316406 192.792969 173.796875 193.097656 174.25 C 193.402344 174.703125 193.746094 175.125 194.132812 175.511719 C 194.519531 175.894531 194.9375 176.242188 195.394531 176.542969 C 195.847656 176.847656 196.328125 177.105469 196.832031 177.3125 C 197.335938 177.523438 197.855469 177.679688 198.390625 177.789062 C 198.929688 177.894531 199.46875 177.949219 200.015625 177.949219 L 223.691406 177.949219 C 224.238281 177.949219 224.78125 177.894531 225.320312 177.785156 C 225.855469 177.679688 226.378906 177.519531 226.886719 177.308594 C 227.390625 177.097656 227.871094 176.839844 228.328125 176.535156 C 228.78125 176.230469 229.203125 175.882812 229.589844 175.492188 C 229.976562 175.105469 230.320312 174.683594 230.625 174.226562 C 230.929688 173.769531 231.183594 173.289062 231.390625 172.78125 C 231.601562 172.273438 231.757812 171.753906 231.863281 171.214844 C 231.964844 170.675781 232.019531 170.136719 232.015625 169.585938 Z M 232.015625 169.585938 " fill-opacity="1" fill-rule="nonzero"/><path fill="#e2c191" d="M 115.664062 198.0625 C 115.207031 197.964844 114.746094 197.90625 114.28125 197.894531 C 113.8125 198.164062 113.316406 198.367188 112.792969 198.496094 C 112.269531 198.628906 111.738281 198.6875 111.199219 198.667969 C 110.660156 198.652344 110.132812 198.558594 109.621094 198.394531 C 109.105469 198.226562 108.625 197.996094 108.175781 197.695312 C 106.40625 196.472656 104.730469 194.476562 105.117188 192.363281 C 103.828125 194.554688 100.742188 195.667969 98.5625 194.359375 C 99.257812 195.273438 100.585938 195.988281 100.894531 197.082031 C 101.136719 197.988281 101.152344 198.894531 100.9375 199.808594 C 100.726562 200.71875 100.3125 201.527344 99.699219 202.234375 C 98.472656 203.605469 96.828125 204.699219 94.980469 204.71875 L 94.285156 204.71875 C 96.589844 206.378906 96.714844 210.292969 94.515625 212.097656 C 95.433594 214.125 95.960938 216.253906 96.101562 218.476562 C 96.558594 215.464844 97.570312 212.652344 99.136719 210.035156 C 102.863281 203.882812 109.976562 200.207031 115.730469 198.125 C 115.710938 198.101562 115.6875 198.082031 115.664062 198.0625 Z M 115.664062 198.0625 " fill-opacity="1" fill-rule="nonzero"/><path fill="#e2c191" d="M 97.847656 234.570312 C 96.425781 230.644531 95.726562 226.597656 95.753906 222.421875 C 95.625 222.957031 95.382812 223.4375 95.023438 223.855469 C 94.667969 224.277344 94.234375 224.59375 93.722656 224.804688 C 92.105469 225.363281 90.300781 224.160156 89.566406 222.632812 C 88.832031 221.109375 88.921875 219.300781 88.960938 217.585938 C 88.585938 217.980469 88.136719 218.261719 87.617188 218.425781 C 87.097656 218.585938 86.570312 218.617188 86.035156 218.507812 C 84.976562 218.285156 83.988281 217.890625 83.066406 217.324219 C 81.699219 216.582031 79.722656 216.679688 78.347656 215.957031 C 79.765625 217.457031 81.140625 219.25 81.160156 221.308594 C 81.179688 223.367188 79.097656 225.472656 77.175781 224.726562 C 76.414062 224.34375 75.785156 223.808594 75.289062 223.117188 C 74.796875 222.421875 74.152344 221.921875 73.355469 221.617188 C 72.550781 221.40625 71.519531 221.828125 71.421875 222.652344 C 72.375 223.488281 72.960938 224.527344 73.175781 225.777344 C 73.21875 226.078125 73.210938 226.378906 73.152344 226.679688 C 73.09375 226.980469 72.988281 227.261719 72.835938 227.527344 C 72.683594 227.792969 72.492188 228.023438 72.257812 228.222656 C 72.027344 228.421875 71.769531 228.578125 71.484375 228.691406 C 70.320312 229.046875 68.265625 228.171875 68.503906 226.980469 C 68.40625 227.441406 68.273438 227.886719 68.097656 228.324219 C 67.925781 228.761719 67.71875 229.179688 67.472656 229.582031 C 67.226562 229.984375 66.949219 230.363281 66.640625 230.714844 C 66.332031 231.070312 65.996094 231.394531 65.628906 231.691406 C 65.265625 231.988281 64.878906 232.25 64.46875 232.480469 C 64.058594 232.710938 63.632812 232.90625 63.1875 233.0625 C 62.746094 233.222656 62.292969 233.339844 61.828125 233.417969 C 61.367188 233.5 60.898438 233.539062 60.429688 233.539062 C 59.957031 233.515625 59.492188 233.453125 59.035156 233.347656 C 58.574219 233.246094 58.125 233.105469 57.691406 232.921875 C 57.257812 232.742188 56.839844 232.527344 56.441406 232.277344 C 56.042969 232.023438 55.667969 231.742188 55.320312 231.425781 C 54.96875 231.109375 54.648438 230.765625 54.359375 230.398438 C 54.066406 230.027344 53.8125 229.632812 53.585938 229.21875 C 53.363281 228.804688 53.175781 228.375 53.027344 227.929688 C 52.878906 227.484375 52.765625 227.027344 52.695312 226.5625 L 51.902344 226.605469 C 51.628906 227.613281 51.09375 228.460938 50.304688 229.144531 C 48.925781 230.328125 47.140625 230.546875 45.441406 230.664062 C 44.117188 230.753906 42.753906 230.847656 41.851562 231.523438 C 41.421875 231.867188 41.191406 232.316406 41.160156 232.863281 C 41.128906 233.105469 41.203125 233.308594 41.378906 233.476562 C 41.71875 233.765625 41.851562 234.132812 41.78125 234.570312 Z M 97.847656 234.570312 " fill-opacity="1" fill-rule="nonzero"/><path fill="#e2c191" d="M 300.960938 215.855469 C 301.214844 216.335938 301.519531 216.78125 301.875 217.195312 C 302.226562 217.613281 302.621094 217.984375 303.050781 218.316406 C 303.484375 218.644531 303.949219 218.925781 304.441406 219.15625 C 304.933594 219.390625 305.445312 219.566406 305.976562 219.6875 C 306.507812 219.808594 307.042969 219.875 307.589844 219.882812 C 308.132812 219.886719 308.671875 219.835938 309.207031 219.730469 C 309.742188 219.621094 310.257812 219.457031 310.753906 219.238281 C 311.253906 219.019531 311.722656 218.75 312.164062 218.429688 C 312.171875 218.890625 312.226562 219.34375 312.335938 219.789062 C 312.441406 220.238281 312.597656 220.667969 312.800781 221.078125 C 313.003906 221.492188 313.25 221.875 313.539062 222.230469 C 313.828125 222.589844 314.15625 222.910156 314.515625 223.191406 C 314.878906 223.476562 315.265625 223.71875 315.683594 223.914062 C 316.097656 224.113281 316.53125 224.261719 316.980469 224.359375 C 317.429688 224.460938 317.882812 224.511719 318.34375 224.511719 C 318.800781 224.507812 319.257812 224.457031 319.703125 224.355469 C 322.332031 223.753906 324.75 225.726562 326.726562 227.539062 C 327.722656 228.46875 328.5 229.550781 329.058594 230.792969 C 329.617188 232.03125 329.914062 233.332031 329.949219 234.691406 C 321.644531 236.1875 313.347656 236.125 305.0625 234.507812 C 306.351562 231.285156 307.492188 227.636719 306.21875 224.429688 C 305.566406 223.003906 304.707031 221.71875 303.640625 220.566406 C 302.492188 219.25 302.082031 217.183594 300.960938 215.855469 Z M 300.960938 215.855469 " fill-opacity="1" fill-rule="nonzero"/><path fill="#58595b" d="M 159.785156 229.058594 C 160.507812 228.921875 161.207031 228.71875 161.886719 228.449219 C 162.570312 228.179688 163.21875 227.847656 163.835938 227.457031 C 164.457031 227.0625 165.03125 226.617188 165.566406 226.113281 C 166.097656 225.613281 166.582031 225.066406 167.011719 224.472656 C 167.441406 223.878906 167.808594 223.25 168.121094 222.589844 C 168.429688 221.925781 168.675781 221.238281 168.855469 220.53125 C 169.039062 219.820312 169.148438 219.101562 169.191406 218.367188 C 169.238281 217.636719 169.210938 216.910156 169.117188 216.183594 C 169.761719 226.265625 129.5 229.601562 129.5 229.601562 L 98.925781 229.601562 C 99.261719 231.21875 99.726562 232.796875 100.316406 234.339844 C 100.351562 234.414062 100.375 234.496094 100.394531 234.578125 L 130.171875 234.578125 Z M 159.785156 229.058594 " fill-opacity="1" fill-rule="nonzero"/><path fill="#939598" d="M 119.433594 205.273438 C 118.429688 203.679688 117.519531 202.039062 116.695312 200.347656 C 111.289062 202.277344 104.554688 205.691406 101.148438 211.292969 C 98.042969 216.441406 97.847656 222.234375 98.421875 226.695312 C 98.421875 226.695312 103.492188 205.980469 119.433594 205.273438 Z M 119.433594 205.273438 " fill-opacity="1" fill-rule="nonzero"/><path fill="#a97c50" d="M 32.917969 244.953125 L 342.289062 244.953125 L 342.289062 248.667969 L 32.917969 248.667969 Z M 32.917969 244.953125 " fill-opacity="1" fill-rule="nonzero"/><path fill="#ffdebd" d="M 342.289062 236.964844 L 32.953125 236.964844 L 32.953125 239.445312 L 342.324219 239.445312 Z M 342.289062 236.964844 " fill-opacity="1" fill-rule="nonzero"/><path fill="#232323" d="M 207.8125 189.742188 C 207.046875 188.390625 204.640625 189.214844 203.519531 189.558594 C 200.300781 190.605469 197.386719 192.214844 194.785156 194.378906 C 193.34375 195.480469 192.09375 196.765625 191.039062 198.242188 C 189.917969 199.722656 189.183594 201.378906 188.84375 203.207031 C 188.804688 203.527344 189.234375 203.546875 189.382812 203.347656 C 190.449219 201.945312 191.671875 200.695312 193.054688 199.605469 C 194.34375 198.597656 195.519531 197.507812 196.839844 196.574219 C 199.523438 194.792969 202.359375 193.308594 205.351562 192.113281 C 206.292969 191.695312 208.714844 191.328125 207.8125 189.742188 Z M 207.8125 189.742188 " fill-opacity="1" fill-rule="nonzero"/><path fill="#00aeef" d="M 195.871094 159.449219 L 227.828125 159.449219 L 227.828125 162.214844 C 227.828125 163.035156 227.746094 163.847656 227.585938 164.652344 C 227.425781 165.457031 227.1875 166.238281 226.871094 166.996094 C 226.558594 167.753906 226.171875 168.472656 225.714844 169.152344 C 225.257812 169.835938 224.738281 170.464844 224.160156 171.046875 C 223.578125 171.625 222.945312 172.140625 222.261719 172.597656 C 221.578125 173.050781 220.859375 173.433594 220.097656 173.75 C 219.339844 174.0625 218.558594 174.296875 217.753906 174.457031 C 216.949219 174.613281 216.132812 174.695312 215.3125 174.691406 L 208.367188 174.691406 C 207.546875 174.691406 206.734375 174.613281 205.929688 174.453125 C 205.125 174.292969 204.34375 174.054688 203.585938 173.742188 C 202.828125 173.429688 202.109375 173.042969 201.425781 172.589844 C 200.742188 172.132812 200.113281 171.617188 199.53125 171.035156 C 198.953125 170.457031 198.433594 169.824219 197.976562 169.144531 C 197.523438 168.464844 197.136719 167.742188 196.824219 166.988281 C 196.507812 166.230469 196.273438 165.449219 196.113281 164.644531 C 195.953125 163.839844 195.871094 163.027344 195.871094 162.210938 L 195.871094 159.441406 Z M 195.871094 159.449219 " fill-opacity="1" fill-rule="nonzero"/><path fill="#ed1c24" d="M 129.5 159.449219 L 161.457031 159.449219 L 161.457031 162.214844 C 161.457031 163.035156 161.375 163.847656 161.214844 164.652344 C 161.054688 165.457031 160.816406 166.238281 160.5 166.996094 C 160.1875 167.753906 159.800781 168.472656 159.34375 169.152344 C 158.886719 169.835938 158.367188 170.464844 157.785156 171.046875 C 157.207031 171.625 156.574219 172.140625 155.890625 172.597656 C 155.207031 173.050781 154.488281 173.433594 153.726562 173.75 C 152.96875 174.0625 152.1875 174.296875 151.382812 174.457031 C 150.574219 174.613281 149.761719 174.695312 148.941406 174.691406 L 141.996094 174.691406 C 141.175781 174.691406 140.363281 174.613281 139.558594 174.453125 C 138.753906 174.292969 137.972656 174.054688 137.214844 173.742188 C 136.457031 173.429688 135.734375 173.042969 135.054688 172.589844 C 134.371094 172.132812 133.738281 171.617188 133.160156 171.035156 C 132.578125 170.457031 132.0625 169.824219 131.605469 169.144531 C 131.148438 168.464844 130.765625 167.742188 130.453125 166.984375 C 130.136719 166.230469 129.902344 165.449219 129.742188 164.644531 C 129.582031 163.839844 129.5 163.027344 129.5 162.210938 L 129.5 159.441406 Z M 129.5 159.449219 " fill-opacity="1" fill-rule="nonzero"/><path fill="#232323" d="M 133.585938 181.089844 L 157.375 181.089844 C 158.132812 181.089844 158.882812 181.015625 159.625 180.867188 C 160.371094 180.722656 161.089844 180.503906 161.789062 180.210938 C 162.492188 179.921875 163.15625 179.566406 163.785156 179.148438 C 164.414062 178.726562 164.996094 178.25 165.53125 177.714844 C 166.070312 177.179688 166.546875 176.597656 166.96875 175.96875 C 167.390625 175.339844 167.746094 174.675781 168.035156 173.976562 C 168.324219 173.277344 168.546875 172.558594 168.695312 171.816406 C 168.84375 171.074219 168.917969 170.324219 168.917969 169.566406 L 168.917969 165.878906 L 188.507812 165.878906 L 188.507812 169.585938 C 188.507812 170.34375 188.582031 171.089844 188.730469 171.832031 C 188.878906 172.570312 189.097656 173.289062 189.386719 173.988281 C 189.675781 174.683594 190.03125 175.347656 190.453125 175.976562 C 190.871094 176.601562 191.347656 177.183594 191.882812 177.71875 C 192.417969 178.253906 193 178.730469 193.628906 179.148438 C 194.257812 179.566406 194.917969 179.921875 195.617188 180.210938 C 196.316406 180.5 197.035156 180.71875 197.777344 180.867188 C 198.519531 181.015625 199.265625 181.089844 200.023438 181.089844 L 223.691406 181.089844 C 224.445312 181.089844 225.195312 181.015625 225.9375 180.871094 C 226.679688 180.722656 227.398438 180.503906 228.097656 180.214844 C 228.796875 179.925781 229.460938 179.570312 230.089844 179.152344 C 230.71875 178.730469 231.296875 178.253906 231.832031 177.71875 C 232.367188 177.1875 232.847656 176.605469 233.265625 175.976562 C 233.6875 175.347656 234.042969 174.6875 234.332031 173.988281 C 234.621094 173.292969 234.839844 172.570312 234.988281 171.832031 C 235.136719 171.089844 235.210938 170.34375 235.210938 169.585938 L 235.210938 155.039062 C 235.210938 154.773438 235.160156 154.519531 235.058594 154.273438 C 234.957031 154.03125 234.8125 153.816406 234.625 153.628906 C 234.4375 153.441406 234.222656 153.296875 233.980469 153.199219 C 233.734375 153.097656 233.480469 153.046875 233.214844 153.046875 L 124.042969 153.046875 C 123.777344 153.046875 123.523438 153.097656 123.28125 153.199219 C 123.035156 153.300781 122.820312 153.445312 122.632812 153.632812 C 122.449219 153.816406 122.304688 154.03125 122.203125 154.277344 C 122.101562 154.519531 122.050781 154.773438 122.050781 155.039062 L 122.050781 169.566406 C 122.050781 170.324219 122.125 171.074219 122.273438 171.816406 C 122.421875 172.558594 122.644531 173.277344 122.933594 173.976562 C 123.222656 174.675781 123.578125 175.339844 124 175.96875 C 124.421875 176.597656 124.898438 177.175781 125.433594 177.710938 C 125.96875 178.246094 126.550781 178.726562 127.179688 179.144531 C 127.808594 179.566406 128.472656 179.921875 129.171875 180.210938 C 129.875 180.5 130.59375 180.71875 131.335938 180.867188 C 132.078125 181.015625 132.828125 181.089844 133.585938 181.089844 Z M 126.039062 157.035156 L 231.21875 157.035156 L 231.21875 169.585938 C 231.214844 170.082031 231.167969 170.570312 231.070312 171.054688 C 230.972656 171.535156 230.828125 172.007812 230.640625 172.460938 C 230.453125 172.917969 230.21875 173.351562 229.945312 173.761719 C 229.671875 174.171875 229.359375 174.550781 229.007812 174.898438 C 228.660156 175.25 228.28125 175.5625 227.867188 175.835938 C 227.457031 176.109375 227.023438 176.339844 226.570312 176.53125 C 226.113281 176.71875 225.640625 176.863281 225.15625 176.960938 C 224.671875 177.058594 224.183594 177.105469 223.691406 177.105469 L 200.015625 177.105469 C 199.523438 177.105469 199.03125 177.058594 198.546875 176.960938 C 198.0625 176.863281 197.59375 176.722656 197.136719 176.53125 C 196.679688 176.34375 196.246094 176.113281 195.835938 175.835938 C 195.425781 175.5625 195.046875 175.25 194.695312 174.902344 C 194.347656 174.554688 194.035156 174.171875 193.757812 173.761719 C 193.484375 173.351562 193.253906 172.917969 193.0625 172.464844 C 192.875 172.007812 192.730469 171.539062 192.636719 171.054688 C 192.539062 170.570312 192.488281 170.082031 192.488281 169.585938 L 192.488281 163.882812 C 192.488281 163.617188 192.4375 163.363281 192.335938 163.121094 C 192.234375 162.875 192.089844 162.660156 191.902344 162.472656 C 191.714844 162.289062 191.5 162.144531 191.253906 162.042969 C 191.011719 161.941406 190.757812 161.894531 190.492188 161.894531 C 190.332031 161.894531 190.175781 161.917969 190.019531 161.957031 C 189.863281 161.917969 189.707031 161.894531 189.542969 161.894531 L 167.453125 161.894531 C 167.363281 161.886719 167.273438 161.886719 167.183594 161.894531 C 167.09375 161.886719 167.003906 161.886719 166.914062 161.894531 C 166.648438 161.894531 166.394531 161.945312 166.152344 162.046875 C 165.90625 162.144531 165.691406 162.289062 165.503906 162.476562 C 165.320312 162.664062 165.175781 162.878906 165.074219 163.121094 C 164.972656 163.367188 164.921875 163.621094 164.921875 163.882812 L 164.921875 169.566406 C 164.921875 170.0625 164.875 170.550781 164.777344 171.039062 C 164.679688 171.523438 164.535156 171.996094 164.347656 172.453125 C 164.15625 172.910156 163.925781 173.34375 163.648438 173.753906 C 163.375 174.164062 163.0625 174.546875 162.710938 174.898438 C 162.359375 175.246094 161.980469 175.558594 161.566406 175.832031 C 161.15625 176.109375 160.722656 176.339844 160.261719 176.53125 C 159.804688 176.71875 159.335938 176.863281 158.847656 176.960938 C 158.363281 177.058594 157.871094 177.105469 157.375 177.105469 L 133.585938 177.105469 C 133.089844 177.105469 132.601562 177.058594 132.113281 176.960938 C 131.628906 176.863281 131.15625 176.71875 130.699219 176.53125 C 130.242188 176.339844 129.808594 176.109375 129.394531 175.832031 C 128.984375 175.558594 128.601562 175.246094 128.253906 174.898438 C 127.902344 174.546875 127.589844 174.164062 127.3125 173.753906 C 127.039062 173.34375 126.804688 172.910156 126.617188 172.453125 C 126.425781 171.996094 126.28125 171.523438 126.1875 171.039062 C 126.089844 170.550781 126.039062 170.0625 126.039062 169.566406 Z M 126.039062 157.035156 " fill-opacity="1" fill-rule="nonzero"/><g clip-path="url(#f510cb41c2)"><path fill="#232323" d="M 343.488281 233.777344 L 331.703125 233.777344 C 331.722656 233.148438 331.6875 232.519531 331.59375 231.894531 C 331.5 231.269531 331.351562 230.65625 331.144531 230.058594 C 330.941406 229.460938 330.679688 228.886719 330.371094 228.335938 C 330.058594 227.785156 329.699219 227.265625 329.296875 226.78125 C 328.890625 226.296875 328.441406 225.851562 327.957031 225.449219 C 327.46875 225.046875 326.949219 224.691406 326.394531 224.382812 C 325.84375 224.074219 325.265625 223.820312 324.667969 223.617188 C 324.070312 223.414062 323.457031 223.265625 322.828125 223.175781 C 322.386719 223.125 321.941406 223.105469 321.488281 223.085938 C 321 223.082031 320.515625 223.039062 320.03125 222.957031 C 319.707031 222.917969 319.4375 222.777344 319.214844 222.539062 C 319.253906 222.085938 319.375 221.660156 319.570312 221.25 C 319.839844 220.597656 320.035156 219.921875 320.15625 219.222656 C 320.65625 215.605469 317.449219 212.644531 314.144531 212.140625 C 312.03125 211.859375 309.941406 211.96875 307.875 212.476562 C 307.578125 211.617188 307.160156 210.820312 306.625 210.085938 C 306.09375 209.355469 305.460938 208.714844 304.734375 208.167969 C 304.007812 207.625 303.21875 207.199219 302.363281 206.890625 C 301.507812 206.582031 300.628906 206.40625 299.71875 206.359375 C 298.8125 206.316406 297.917969 206.40625 297.035156 206.628906 C 296.15625 206.851562 295.328125 207.199219 294.550781 207.667969 C 293.773438 208.140625 293.082031 208.714844 292.480469 209.390625 C 291.875 210.070312 291.382812 210.820312 291.003906 211.644531 L 257.972656 201.105469 C 260.035156 197.214844 261.589844 193.128906 262.636719 188.847656 C 263.683594 184.570312 264.195312 180.230469 264.164062 175.824219 C 264.148438 169.855469 263.335938 163.996094 261.726562 158.246094 C 260.117188 152.496094 257.769531 147.0625 254.6875 141.949219 L 236.578125 39.304688 C 236.5625 39.230469 236.542969 39.152344 236.519531 39.078125 C 236.519531 39.027344 236.488281 38.96875 236.46875 38.917969 C 236.449219 38.867188 236.410156 38.804688 236.378906 38.746094 C 236.347656 38.6875 236.320312 38.628906 236.289062 38.578125 C 236.257812 38.53125 236.222656 38.488281 236.183594 38.449219 C 236.140625 38.386719 236.09375 38.328125 236.042969 38.273438 L 235.921875 38.171875 C 235.863281 38.125 235.8125 38.074219 235.753906 38.035156 C 235.703125 38 235.648438 37.972656 235.59375 37.945312 C 235.535156 37.910156 235.476562 37.878906 235.417969 37.851562 C 235.359375 37.851562 235.300781 37.8125 235.246094 37.792969 L 235.050781 37.726562 C 234.992188 37.726562 234.933594 37.726562 234.878906 37.726562 L 234.644531 37.65625 L 140.566406 37.65625 C 140.332031 37.660156 140.109375 37.703125 139.890625 37.785156 C 139.675781 37.867188 139.476562 37.980469 139.300781 38.132812 C 139.125 38.285156 138.976562 38.460938 138.863281 38.660156 C 138.75 38.863281 138.671875 39.078125 138.632812 39.304688 L 120.589844 141.035156 C 120.46875 141.152344 120.363281 141.28125 120.273438 141.421875 C 117.085938 146.597656 114.664062 152.105469 113.003906 157.949219 C 111.339844 163.792969 110.503906 169.75 110.492188 175.824219 C 110.488281 178.390625 110.644531 180.945312 110.960938 183.492188 C 108.984375 182.296875 106.28125 181.21875 103.570312 182.308594 C 100.683594 183.460938 99.472656 186.359375 98.5 188.6875 L 98.382812 188.972656 C 97.847656 190.257812 96.738281 192.394531 95.308594 192.46875 C 94.523438 192.523438 93.539062 191.917969 92.507812 191.296875 C 90.960938 190.363281 89.03125 189.203125 86.707031 189.722656 C 84.304688 190.265625 82.480469 192.613281 82.273438 195.433594 C 82.242188 197.34375 82.570312 199.1875 83.265625 200.964844 L 83.363281 201.265625 C 83.828125 202.480469 84.042969 203.734375 84.007812 205.035156 C 83.015625 205.117188 82.050781 205 81.113281 204.671875 C 80.792969 204.5625 80.46875 204.441406 80.140625 204.320312 C 78.601562 203.746094 76.679688 203.03125 74.636719 203.589844 C 72.015625 204.3125 70.125 206.992188 70.09375 210.105469 C 70.089844 211.226562 70.253906 212.324219 70.585938 213.394531 C 70.433594 213.285156 70.289062 213.164062 70.152344 213.035156 C 68.949219 211.949219 66.445312 209.675781 63.527344 210.660156 C 62.308594 211.160156 61.316406 211.949219 60.558594 213.03125 C 60.164062 213.492188 59.679688 214.074219 59.410156 214.117188 C 59.140625 214.164062 58.386719 213.539062 57.8125 213.03125 C 56.863281 212.179688 55.6875 211.097656 54.070312 210.859375 C 53.410156 210.757812 52.761719 210.792969 52.117188 210.960938 C 51.472656 211.128906 50.890625 211.421875 50.371094 211.832031 C 49.664062 212.394531 49.089844 213.066406 48.65625 213.855469 C 48.21875 214.644531 47.949219 215.488281 47.851562 216.382812 C 47.75 218.074219 47.941406 219.734375 48.421875 221.359375 C 48.550781 221.886719 48.679688 222.414062 48.777344 222.945312 C 49.105469 224.695312 48.867188 226.105469 48.132812 226.730469 C 47.398438 227.355469 46.296875 227.371094 45.117188 227.480469 C 43.507812 227.589844 41.496094 227.734375 39.832031 228.976562 C 39.246094 229.433594 38.785156 229.996094 38.445312 230.65625 C 38.109375 231.320312 37.925781 232.023438 37.902344 232.769531 C 37.886719 233.109375 37.917969 233.445312 37.992188 233.777344 L 31.722656 233.777344 C 31.457031 233.777344 31.203125 233.828125 30.960938 233.929688 C 30.714844 234.03125 30.5 234.175781 30.3125 234.359375 C 30.125 234.546875 29.984375 234.761719 29.882812 235.007812 C 29.78125 235.25 29.730469 235.503906 29.730469 235.769531 L 29.730469 249.867188 C 29.730469 250.128906 29.78125 250.382812 29.882812 250.628906 C 29.984375 250.871094 30.125 251.085938 30.3125 251.273438 C 30.5 251.460938 30.714844 251.601562 30.960938 251.703125 C 31.203125 251.804688 31.457031 251.855469 31.722656 251.855469 L 343.488281 251.855469 C 343.753906 251.855469 344.007812 251.804688 344.25 251.703125 C 344.496094 251.601562 344.710938 251.460938 344.898438 251.273438 C 345.082031 251.085938 345.226562 250.871094 345.328125 250.628906 C 345.429688 250.382812 345.480469 250.128906 345.480469 249.867188 L 345.480469 235.769531 C 345.480469 235.503906 345.429688 235.25 345.328125 235.007812 C 345.226562 234.761719 345.082031 234.546875 344.898438 234.359375 C 344.710938 234.175781 344.496094 234.03125 344.25 233.929688 C 344.007812 233.828125 343.753906 233.777344 343.488281 233.777344 Z M 299.953125 210.34375 C 300.535156 210.441406 301.085938 210.628906 301.609375 210.90625 C 302.128906 211.183594 302.589844 211.539062 302.996094 211.96875 C 303.398438 212.398438 303.71875 212.882812 303.964844 213.421875 C 304.207031 213.960938 304.355469 214.523438 304.414062 215.109375 C 304.421875 215.265625 304.449219 215.417969 304.496094 215.566406 C 304.542969 215.71875 304.605469 215.859375 304.6875 215.992188 C 304.765625 216.128906 304.859375 216.253906 304.96875 216.363281 C 305.078125 216.476562 305.199219 216.574219 305.332031 216.660156 C 305.464844 216.742188 305.601562 216.8125 305.75 216.863281 C 305.898438 216.914062 306.050781 216.945312 306.207031 216.960938 C 306.363281 216.976562 306.519531 216.972656 306.675781 216.953125 C 306.828125 216.929688 306.980469 216.890625 307.125 216.835938 C 309.199219 216.039062 311.335938 215.777344 313.539062 216.046875 C 314.882812 216.253906 316.367188 217.457031 316.207031 218.625 C 316.121094 219.042969 316 219.453125 315.839844 219.847656 C 315.445312 220.882812 314.910156 222.304688 315.445312 223.859375 C 315.761719 224.65625 316.257812 225.324219 316.925781 225.863281 C 317.597656 226.402344 318.359375 226.742188 319.207031 226.878906 C 319.910156 227.011719 320.621094 227.082031 321.335938 227.089844 C 321.683594 227.089844 322.03125 227.089844 322.378906 227.160156 C 322.761719 227.222656 323.136719 227.324219 323.503906 227.453125 C 323.871094 227.585938 324.222656 227.753906 324.558594 227.949219 C 324.894531 228.144531 325.210938 228.371094 325.507812 228.625 C 325.800781 228.882812 326.070312 229.160156 326.316406 229.464844 C 326.558594 229.769531 326.773438 230.089844 326.957031 230.433594 C 327.140625 230.777344 327.292969 231.136719 327.414062 231.503906 C 327.53125 231.875 327.617188 232.253906 327.664062 232.640625 C 327.714844 233.027344 327.730469 233.414062 327.707031 233.804688 L 307.085938 233.804688 C 307.289062 233.328125 307.464844 232.847656 307.613281 232.351562 C 307.765625 231.859375 307.886719 231.359375 307.988281 230.855469 C 308.085938 230.347656 308.15625 229.839844 308.203125 229.328125 C 308.246094 228.8125 308.265625 228.300781 308.257812 227.785156 C 308.25 227.269531 308.214844 226.753906 308.152344 226.246094 C 308.09375 225.734375 308.003906 225.226562 307.890625 224.722656 C 307.777344 224.222656 307.636719 223.726562 307.46875 223.238281 C 307.304688 222.75 307.113281 222.273438 306.898438 221.804688 C 306.683594 221.335938 306.445312 220.878906 306.179688 220.4375 C 305.917969 219.992188 305.632812 219.566406 305.328125 219.152344 C 305.019531 218.738281 304.691406 218.339844 304.34375 217.960938 C 303.992188 217.582031 303.625 217.21875 303.242188 216.878906 C 302.855469 216.539062 302.453125 216.21875 302.03125 215.917969 C 301.613281 215.617188 301.179688 215.339844 300.730469 215.085938 C 300.28125 214.832031 299.820312 214.601562 299.351562 214.394531 C 298.878906 214.1875 298.394531 214.003906 297.90625 213.847656 L 294.851562 212.875 C 295.113281 212.445312 295.433594 212.0625 295.804688 211.726562 C 296.179688 211.386719 296.589844 211.105469 297.039062 210.882812 C 297.492188 210.65625 297.964844 210.5 298.460938 210.410156 C 298.953125 210.316406 299.453125 210.296875 299.953125 210.34375 Z M 229.894531 140.660156 L 212.402344 41.640625 L 232.917969 41.640625 L 250.414062 140.660156 Z M 142.214844 41.640625 L 208.355469 41.640625 L 225.847656 140.660156 L 124.71875 140.660156 Z M 123.003906 144.648438 L 251.664062 144.648438 C 254.4375 149.371094 256.546875 154.378906 257.988281 159.660156 C 259.433594 164.945312 260.164062 170.328125 260.175781 175.804688 C 260.175781 190.792969 253.984375 204.132812 242.269531 214.328125 C 242.070312 214.503906 241.914062 214.707031 241.796875 214.945312 C 241.679688 215.183594 241.613281 215.433594 241.59375 215.695312 C 241.578125 215.957031 241.609375 216.214844 241.695312 216.464844 C 241.777344 216.714844 241.90625 216.9375 242.082031 217.136719 C 242.253906 217.335938 242.460938 217.492188 242.695312 217.609375 C 242.933594 217.726562 243.183594 217.796875 243.445312 217.8125 C 243.710938 217.832031 243.964844 217.800781 244.214844 217.714844 C 244.46875 217.632812 244.691406 217.503906 244.890625 217.328125 C 249.179688 213.628906 252.851562 209.390625 255.910156 204.621094 L 296.726562 217.613281 C 297.539062 217.867188 298.3125 218.214844 299.042969 218.652344 C 299.773438 219.085938 300.445312 219.605469 301.050781 220.199219 C 301.660156 220.796875 302.191406 221.453125 302.644531 222.175781 C 303.097656 222.898438 303.457031 223.664062 303.730469 224.46875 C 303.890625 224.949219 304.019531 225.441406 304.117188 225.9375 C 303.796875 225.433594 303.441406 224.960938 303.054688 224.507812 C 298 218.628906 288.585938 218.335938 288.1875 218.320312 C 287.921875 218.3125 287.667969 218.355469 287.421875 218.449219 C 287.175781 218.542969 286.957031 218.679688 286.765625 218.863281 C 286.574219 219.042969 286.425781 219.253906 286.316406 219.496094 C 286.210938 219.738281 286.15625 219.988281 286.152344 220.253906 C 286.144531 220.515625 286.1875 220.769531 286.28125 221.015625 C 286.375 221.265625 286.515625 221.484375 286.695312 221.675781 C 286.875 221.867188 287.085938 222.015625 287.328125 222.125 C 287.566406 222.234375 287.820312 222.292969 288.085938 222.300781 C 288.160156 222.300781 296.144531 222.578125 300.03125 227.109375 C 300.808594 228.039062 301.375 229.078125 301.742188 230.234375 C 302.105469 231.386719 302.234375 232.566406 302.132812 233.773438 L 213.246094 233.773438 C 216.707031 232.808594 220.097656 231.652344 223.425781 230.300781 C 223.671875 230.203125 223.886719 230.0625 224.078125 229.875 C 224.265625 229.691406 224.410156 229.476562 224.515625 229.230469 C 224.617188 228.988281 224.671875 228.734375 224.671875 228.46875 C 224.675781 228.207031 224.625 227.949219 224.527344 227.707031 C 224.425781 227.460938 224.28125 227.246094 224.097656 227.058594 C 223.910156 226.867188 223.695312 226.722656 223.453125 226.621094 C 223.207031 226.519531 222.953125 226.464844 222.6875 226.464844 C 222.425781 226.464844 222.167969 226.511719 221.925781 226.613281 C 210.707031 231.183594 197.742188 233.695312 184.441406 233.773438 L 151.875 233.773438 L 160.378906 232.1875 C 161.214844 232.027344 162.027344 231.796875 162.824219 231.496094 C 163.617188 231.195312 164.382812 230.828125 165.113281 230.394531 C 165.84375 229.964844 166.535156 229.472656 167.179688 228.921875 C 167.828125 228.371094 168.421875 227.769531 168.96875 227.117188 C 169.511719 226.464844 169.992188 225.769531 170.417969 225.03125 C 170.839844 224.296875 171.199219 223.53125 171.492188 222.730469 C 171.78125 221.933594 172.003906 221.117188 172.15625 220.28125 C 172.304688 219.445312 172.386719 218.605469 172.390625 217.753906 L 173.382812 217.824219 L 185.347656 217.824219 C 190.433594 217.453125 195.691406 217.058594 200.722656 215.320312 C 206.589844 213.292969 211.035156 209.664062 213.328125 205.085938 C 216.117188 199.464844 215.082031 192.613281 210.867188 188.808594 C 207.253906 185.546875 202.238281 185.019531 198.28125 184.949219 C 197.59375 184.949219 196.898438 184.949219 196.207031 184.914062 C 192.921875 184.914062 189.816406 184.859375 187.039062 183.78125 C 184.945312 182.972656 182.925781 181.136719 182.261719 179.078125 C 185.859375 178.273438 188.429688 176.171875 188.429688 173.699219 C 188.429688 170.539062 184.222656 167.976562 179.035156 167.976562 C 173.847656 167.976562 169.640625 170.550781 169.640625 173.699219 C 169.640625 176.316406 172.507812 178.515625 176.429688 179.207031 C 175.992188 180.261719 175.359375 181.1875 174.535156 181.980469 C 173.710938 182.777344 172.765625 183.378906 171.695312 183.78125 C 168.925781 184.859375 165.816406 184.890625 162.53125 184.914062 C 161.835938 184.914062 161.144531 184.914062 160.457031 184.949219 C 156.5 185.039062 151.488281 185.589844 147.871094 188.808594 C 143.832031 192.460938 142.714844 198.890625 145.089844 204.378906 L 124.511719 207.066406 C 124.515625 207.058594 124.515625 207.046875 124.511719 207.035156 C 117.882812 198.164062 114.519531 187.664062 114.519531 175.820312 C 114.527344 170.34375 115.253906 164.964844 116.691406 159.679688 C 118.132812 154.394531 120.234375 149.390625 123.003906 144.667969 Z M 100.960938 233.777344 C 100.285156 232.027344 96.339844 220.832031 101.84375 211.734375 C 104.996094 206.519531 111.15625 203.269531 116.308594 201.34375 C 117.402344 203.535156 118.644531 205.640625 120.035156 207.660156 L 117.386719 208.007812 C 117.132812 208.054688 116.898438 208.144531 116.683594 208.28125 C 116.464844 208.417969 116.28125 208.589844 116.132812 208.796875 C 115.980469 209 115.871094 209.230469 115.808594 209.476562 C 115.746094 209.726562 115.730469 209.976562 115.765625 210.230469 C 115.796875 210.484375 115.875 210.722656 116 210.945312 C 116.125 211.167969 116.289062 211.359375 116.488281 211.519531 C 116.683594 211.683594 116.90625 211.800781 117.152344 211.878906 C 117.394531 211.953125 117.644531 211.980469 117.902344 211.960938 L 156.261719 206.933594 C 157.5625 206.773438 158.851562 206.851562 160.125 207.160156 C 161.398438 207.472656 162.578125 207.996094 163.660156 208.734375 L 153.550781 210.558594 C 153.308594 210.605469 153.082031 210.695312 152.875 210.828125 C 152.664062 210.957031 152.488281 211.121094 152.339844 211.320312 C 152.191406 211.515625 152.085938 211.734375 152.015625 211.96875 C 151.949219 212.207031 151.925781 212.449219 151.949219 212.691406 C 151.972656 212.9375 152.035156 213.171875 152.144531 213.390625 C 152.253906 213.613281 152.398438 213.808594 152.578125 213.976562 C 152.757812 214.144531 152.960938 214.273438 153.191406 214.367188 C 153.417969 214.457031 153.65625 214.503906 153.902344 214.511719 C 154.023438 214.523438 154.140625 214.523438 154.257812 214.511719 L 166.925781 212.226562 C 167.671875 213.492188 168.136719 214.855469 168.324219 216.3125 C 168.363281 216.589844 168.382812 216.871094 168.394531 217.148438 L 156.03125 218.328125 C 155.777344 218.355469 155.539062 218.429688 155.316406 218.546875 C 155.09375 218.667969 154.898438 218.824219 154.734375 219.015625 C 154.570312 219.210938 154.445312 219.425781 154.363281 219.664062 C 154.28125 219.90625 154.246094 220.152344 154.257812 220.40625 C 154.269531 220.65625 154.328125 220.898438 154.433594 221.128906 C 154.535156 221.363281 154.679688 221.566406 154.859375 221.742188 C 155.042969 221.917969 155.25 222.054688 155.484375 222.152344 C 155.71875 222.25 155.964844 222.300781 156.214844 222.304688 L 156.417969 222.304688 L 167.835938 221.191406 C 167.523438 222.089844 167.101562 222.929688 166.570312 223.714844 C 166.039062 224.503906 165.414062 225.207031 164.695312 225.828125 C 163.976562 226.449219 163.191406 226.96875 162.335938 227.382812 C 161.484375 227.796875 160.589844 228.09375 159.65625 228.273438 L 130.117188 233.773438 Z M 148.980469 203.328125 C 147.003906 199.328125 147.691406 194.367188 150.546875 191.773438 C 153.1875 189.382812 157.28125 188.992188 160.554688 188.914062 L 162.5625 188.914062 C 166.070312 188.914062 169.683594 188.847656 173.136719 187.511719 C 174.429688 187.011719 175.605469 186.320312 176.671875 185.441406 C 177.738281 184.558594 178.636719 183.53125 179.371094 182.359375 C 180.101562 183.535156 181 184.5625 182.066406 185.441406 C 183.132812 186.324219 184.308594 187.011719 185.601562 187.511719 C 189.046875 188.847656 192.6875 188.882812 196.167969 188.914062 L 198.1875 188.914062 C 201.460938 188.992188 205.550781 189.382812 208.191406 191.773438 C 211.066406 194.347656 211.738281 199.328125 209.757812 203.328125 C 207.328125 208.21875 202.238281 210.589844 199.449219 211.5625 C 194.9375 213.125 189.964844 213.492188 185.15625 213.851562 L 181.804688 213.851562 C 182.09375 213.378906 182.292969 212.871094 182.402344 212.328125 C 182.511719 211.785156 182.523438 211.238281 182.441406 210.691406 C 182.355469 210.140625 182.183594 209.625 181.914062 209.136719 C 181.648438 208.652344 181.308594 208.226562 180.890625 207.859375 C 180.179688 207.316406 179.394531 206.921875 178.53125 206.675781 C 178.332031 206.605469 178.132812 206.539062 177.9375 206.464844 C 177.765625 206.398438 177.609375 206.3125 177.460938 206.199219 C 177.460938 206.101562 177.527344 205.972656 177.558594 205.878906 C 177.648438 205.601562 177.734375 205.324219 177.796875 205.046875 C 177.9375 204.335938 177.929688 203.625 177.769531 202.917969 C 177.609375 202.210938 177.3125 201.566406 176.882812 200.984375 C 176.328125 200.230469 175.644531 199.613281 174.839844 199.136719 C 174.035156 198.660156 173.164062 198.359375 172.234375 198.234375 C 170.410156 198.03125 168.613281 198.164062 166.835938 198.628906 C 166.628906 197.683594 166.265625 196.804688 165.75 195.984375 C 165.234375 195.167969 164.59375 194.460938 163.832031 193.863281 C 163.492188 193.621094 163.132812 193.410156 162.757812 193.230469 C 162.378906 193.050781 161.988281 192.90625 161.582031 192.796875 C 161.179688 192.6875 160.769531 192.617188 160.355469 192.578125 C 159.9375 192.542969 159.519531 192.542969 159.105469 192.582031 C 158.6875 192.621094 158.277344 192.695312 157.875 192.804688 C 157.472656 192.914062 157.082031 193.0625 156.703125 193.242188 C 156.324219 193.421875 155.96875 193.632812 155.628906 193.878906 C 155.289062 194.121094 154.972656 194.394531 154.683594 194.695312 C 152.75 196.792969 153.015625 200.527344 154.191406 203.191406 L 149.296875 203.835938 C 149.171875 203.664062 149.070312 203.496094 148.980469 203.328125 Z M 158.644531 202.910156 C 158.578125 202.78125 158.5 202.664062 158.40625 202.554688 C 157.265625 201.265625 156.917969 198.144531 157.601562 197.40625 C 157.855469 197.160156 158.144531 196.964844 158.464844 196.816406 C 158.785156 196.667969 159.121094 196.578125 159.472656 196.546875 C 159.824219 196.515625 160.171875 196.542969 160.515625 196.632812 C 160.855469 196.71875 161.175781 196.859375 161.46875 197.058594 C 162.757812 198.011719 163.167969 199.972656 163.304688 201.460938 C 163.320312 201.617188 163.351562 201.769531 163.402344 201.917969 C 163.453125 202.066406 163.523438 202.207031 163.605469 202.34375 C 163.691406 202.476562 163.789062 202.597656 163.902344 202.707031 C 164.015625 202.816406 164.136719 202.910156 164.273438 202.992188 C 164.410156 203.070312 164.550781 203.132812 164.703125 203.179688 C 164.851562 203.226562 165.007812 203.257812 165.164062 203.265625 C 165.320312 203.277344 165.476562 203.269531 165.632812 203.242188 C 165.789062 203.214844 165.9375 203.171875 166.082031 203.109375 C 167.882812 202.300781 169.765625 202 171.726562 202.199219 C 172.507812 202.316406 173.132812 202.6875 173.609375 203.316406 C 173.835938 203.582031 173.921875 203.886719 173.867188 204.230469 C 173.835938 204.375 173.792969 204.515625 173.742188 204.652344 C 173.480469 205.324219 173.378906 206.019531 173.433594 206.738281 C 173.609375 208.234375 174.722656 209.480469 176.4375 210.175781 C 176.695312 210.28125 176.953125 210.371094 177.21875 210.460938 C 177.605469 210.5625 177.96875 210.71875 178.304688 210.929688 C 178.398438 211.046875 178.445312 211.175781 178.449219 211.324219 C 178.449219 211.46875 178.40625 211.601562 178.320312 211.71875 C 178.230469 211.835938 178.117188 211.914062 177.976562 211.953125 C 177.832031 211.992188 177.695312 211.984375 177.558594 211.929688 C 177.070312 211.621094 176.542969 211.425781 175.972656 211.34375 C 175.402344 211.265625 174.839844 211.304688 174.285156 211.464844 C 173.296875 211.71875 172.382812 212.132812 171.539062 212.714844 C 171.0625 211.367188 170.402344 210.117188 169.554688 208.96875 C 169.46875 208.832031 169.371094 208.707031 169.257812 208.59375 C 168.621094 207.773438 167.902344 207.03125 167.105469 206.359375 C 166.3125 205.691406 165.453125 205.113281 164.539062 204.621094 C 163.621094 204.132812 162.660156 203.742188 161.664062 203.453125 C 160.664062 203.164062 159.644531 202.984375 158.605469 202.910156 Z M 41.929688 232.921875 C 41.945312 232.617188 42.070312 232.363281 42.300781 232.164062 C 43.015625 231.628906 44.234375 231.519531 45.464844 231.453125 C 47.226562 231.332031 49.234375 231.09375 50.800781 229.75 C 52.671875 228.144531 53.378906 225.46875 52.734375 222.214844 C 52.617188 221.617188 52.476562 221.023438 52.335938 220.425781 C 51.96875 219.246094 51.808594 218.039062 51.84375 216.800781 C 51.929688 216.074219 52.25 215.476562 52.8125 215.003906 C 52.992188 214.832031 53.207031 214.757812 53.457031 214.792969 C 54.132812 215.058594 54.714844 215.453125 55.207031 215.984375 C 56.355469 217.007812 57.914062 218.40625 60.125 218.039062 C 61.859375 217.75 62.910156 216.488281 63.675781 215.566406 C 63.992188 215.105469 64.386719 214.722656 64.863281 214.425781 C 65.5625 214.183594 67.039062 215.527344 67.523438 215.972656 C 69.320312 217.605469 72.128906 218.886719 74.613281 217.59375 C 74.835938 217.476562 75.035156 217.324219 75.199219 217.132812 C 75.367188 216.941406 75.496094 216.726562 75.578125 216.488281 C 75.664062 216.25 75.703125 216 75.691406 215.746094 C 75.683594 215.496094 75.628906 215.25 75.527344 215.019531 C 74.816406 213.410156 74.089844 211.742188 74.121094 210.152344 C 74.121094 209.019531 74.765625 207.6875 75.734375 207.414062 C 76.53125 207.195312 77.628906 207.601562 78.785156 208.058594 C 79.160156 208.199219 79.527344 208.335938 79.894531 208.457031 C 80.539062 208.675781 84.011719 209.746094 86.253906 208.425781 C 86.679688 208.1875 87.035156 207.871094 87.324219 207.480469 C 87.609375 207.085938 87.800781 206.648438 87.898438 206.171875 C 88.34375 203.992188 87.761719 201.871094 87.175781 200.058594 L 87.082031 199.75 C 86.5625 198.460938 86.292969 197.121094 86.273438 195.730469 C 86.347656 194.714844 86.917969 193.761719 87.601562 193.613281 C 88.285156 193.464844 89.316406 194.03125 90.445312 194.714844 C 91.875 195.578125 93.5 196.554688 95.507812 196.453125 C 97.402344 196.363281 100.078125 195.253906 102.0625 190.515625 L 102.183594 190.226562 C 102.9375 188.417969 103.71875 186.542969 105.050781 186.011719 C 106.695312 185.367188 108.957031 186.839844 110.75 188.210938 C 111.066406 188.453125 111.425781 188.589844 111.824219 188.617188 C 112.492188 191.734375 113.425781 194.769531 114.628906 197.71875 C 108.90625 199.890625 102.089844 203.605469 98.414062 209.683594 C 92.800781 218.945312 95.347656 229.605469 96.707031 233.785156 L 42.464844 233.785156 C 42.359375 233.449219 42.183594 233.164062 41.929688 232.921875 Z M 341.492188 247.871094 L 33.71875 247.871094 L 33.71875 237.761719 L 341.492188 237.761719 Z M 341.492188 247.871094 " fill-opacity="1" fill-rule="nonzero"/></g><path fill="#232323" d="M 90.039062 222.082031 C 89.800781 222.199219 89.597656 222.355469 89.421875 222.554688 C 89.25 222.753906 89.117188 222.976562 89.035156 223.226562 C 88.949219 223.476562 88.917969 223.734375 88.933594 223.996094 C 88.953125 224.261719 89.019531 224.511719 89.136719 224.746094 C 89.207031 224.886719 89.21875 225.03125 89.171875 225.179688 C 89.125 225.328125 89.03125 225.4375 88.894531 225.515625 C 88.757812 225.589844 88.613281 225.605469 88.460938 225.5625 C 88.3125 225.523438 88.199219 225.433594 88.117188 225.300781 C 87.992188 225.089844 87.832031 224.914062 87.640625 224.761719 C 87.449219 224.613281 87.234375 224.5 87.003906 224.429688 C 86.769531 224.355469 86.53125 224.328125 86.289062 224.34375 C 86.042969 224.359375 85.8125 224.414062 85.589844 224.515625 C 85.367188 224.617188 85.167969 224.753906 84.996094 224.925781 C 84.824219 225.097656 84.6875 225.292969 84.589844 225.515625 C 84.488281 225.738281 84.429688 225.972656 84.417969 226.214844 C 84.402344 226.457031 84.429688 226.695312 84.503906 226.929688 C 84.480469 227.210938 84.339844 227.410156 84.078125 227.519531 C 83.496094 227.652344 82.992188 227.503906 82.574219 227.078125 C 81.984375 226.445312 81.660156 225.699219 81.597656 224.835938 C 81.566406 224.574219 81.484375 224.328125 81.355469 224.097656 C 81.222656 223.867188 81.054688 223.671875 80.847656 223.507812 C 80.640625 223.34375 80.40625 223.226562 80.152344 223.15625 C 79.898438 223.085938 79.640625 223.066406 79.375 223.097656 C 79.113281 223.128906 78.867188 223.210938 78.636719 223.339844 C 78.40625 223.472656 78.210938 223.640625 78.046875 223.847656 C 77.882812 224.058594 77.769531 224.289062 77.695312 224.542969 C 77.625 224.796875 77.609375 225.058594 77.640625 225.320312 C 77.816406 227.128906 78.546875 228.679688 79.832031 229.96875 C 80.355469 230.472656 80.957031 230.863281 81.628906 231.140625 C 82.304688 231.414062 83.007812 231.558594 83.734375 231.5625 C 84.332031 231.5625 84.90625 231.460938 85.464844 231.253906 C 86.414062 230.898438 87.167969 230.296875 87.726562 229.445312 C 88.792969 229.671875 89.808594 229.527344 90.773438 229.015625 C 91.285156 228.726562 91.726562 228.355469 92.097656 227.898438 C 92.46875 227.441406 92.742188 226.9375 92.921875 226.375 C 93.101562 225.816406 93.171875 225.246094 93.136719 224.660156 C 93.097656 224.074219 92.953125 223.515625 92.707031 222.980469 C 92.589844 222.746094 92.429688 222.542969 92.230469 222.367188 C 92.03125 222.195312 91.808594 222.066406 91.558594 221.980469 C 91.308594 221.898438 91.050781 221.863281 90.789062 221.882812 C 90.523438 221.898438 90.273438 221.964844 90.039062 222.082031 Z M 90.039062 222.082031 " fill-opacity="1" fill-rule="nonzero"/><path fill="#ffffff" d="M 216.023438 159.449219 L 210.648438 159.449219 L 204.984375 174.691406 L 210.363281 174.691406 Z M 216.023438 159.449219 " fill-opacity="0.5" fill-rule="nonzero"/><path fill="#ffffff" d="M 227.828125 159.449219 L 217.773438 159.449219 L 212.089844 174.691406 L 221.25 174.691406 C 221.679688 174.691406 222.105469 174.648438 222.527344 174.566406 C 222.949219 174.484375 223.359375 174.359375 223.757812 174.195312 C 224.152344 174.03125 224.53125 173.828125 224.890625 173.589844 C 225.246094 173.351562 225.578125 173.078125 225.882812 172.773438 C 226.1875 172.46875 226.457031 172.140625 226.699219 171.78125 C 226.9375 171.425781 227.136719 171.046875 227.304688 170.652344 C 227.46875 170.253906 227.59375 169.84375 227.675781 169.421875 C 227.761719 169 227.800781 168.574219 227.800781 168.144531 Z M 227.828125 159.449219 " fill-opacity="0.5" fill-rule="nonzero"/><path fill="#ffffff" d="M 149.652344 159.449219 L 144.269531 159.449219 L 138.613281 174.691406 L 143.992188 174.691406 Z M 149.652344 159.449219 " fill-opacity="0.5" fill-rule="nonzero"/><path fill="#ffffff" d="M 161.457031 159.449219 L 151.402344 159.449219 L 145.71875 174.691406 L 154.875 174.691406 C 155.308594 174.691406 155.734375 174.648438 156.15625 174.566406 C 156.578125 174.484375 156.988281 174.359375 157.382812 174.195312 C 157.78125 174.03125 158.160156 173.828125 158.515625 173.589844 C 158.875 173.351562 159.207031 173.078125 159.511719 172.773438 C 159.816406 172.46875 160.085938 172.140625 160.324219 171.78125 C 160.5625 171.425781 160.765625 171.046875 160.929688 170.652344 C 161.09375 170.253906 161.21875 169.84375 161.304688 169.421875 C 161.386719 169 161.429688 168.574219 161.429688 168.144531 Z M 161.457031 159.449219 " fill-opacity="0.5" fill-rule="nonzero"/><g fill="#ed1c24" fill-opacity="1"><g transform="translate(112.594095, 301.772805)"><g><path d="M 10.25 -37.476562 C 8.515625 -37.476562 5.9375 -37.210938 4.78125 -35.6875 C 3.046875 -33.375 2.941406 -23.492188 2.941406 -20.339844 C 2.941406 -18.394531 2.996094 -16.503906 2.996094 -14.558594 C 3.101562 -5.730469 9.984375 -0.0507812 18.554688 -0.0507812 C 24.597656 -0.0507812 30.328125 -3.046875 32.953125 -8.621094 C 33.847656 -10.511719 34.214844 -12.5625 34.214844 -14.613281 C 34.214844 -17.34375 34.269531 -20.078125 34.269531 -22.8125 C 34.269531 -25.542969 34.164062 -34.375 31.957031 -36.160156 C 30.484375 -37.371094 28.644531 -37.371094 26.804688 -37.371094 C 22.96875 -37.371094 23.441406 -33.742188 23.441406 -31.011719 C 23.441406 -25.28125 23.597656 -19.605469 23.597656 -13.875 C 23.597656 -10.195312 22.335938 -8.199219 18.449219 -8.199219 C 14.402344 -8.199219 13.824219 -11.246094 13.824219 -14.613281 C 13.824219 -18.554688 14.191406 -22.441406 14.191406 -26.382812 C 14.191406 -29.277344 14.136719 -32.21875 13.613281 -35.058594 C 13.457031 -35.84375 13.191406 -36.582031 12.507812 -37 C 11.878906 -37.371094 10.984375 -37.476562 10.25 -37.476562 Z M 10.25 -37.476562 "/></g></g></g><g fill="#ed1c24" fill-opacity="1"><g transform="translate(146.54606, 301.772805)"><g><path d="M 21.339844 -8.199219 C 14.925781 -8.199219 12.140625 -13.71875 12.140625 -19.445312 C 12.140625 -24.859375 14.875 -30.011719 20.867188 -30.011719 C 23.703125 -30.011719 26.332031 -28.800781 29.171875 -28.800781 C 30.222656 -28.800781 30.378906 -29.433594 30.378906 -30.328125 C 30.378906 -31.957031 30.433594 -34.53125 29.277344 -35.792969 C 27.960938 -37.265625 23.390625 -38 21.445312 -38.105469 C 20.550781 -38.15625 19.65625 -38.15625 18.761719 -38.15625 C 8.25 -38.15625 1.15625 -29.277344 1.15625 -19.183594 C 1.15625 -8.726562 8.460938 -0.15625 19.238281 -0.15625 C 21.65625 -0.15625 27.960938 -0.683594 29.695312 -2.417969 C 30.746094 -3.46875 30.851562 -6.359375 30.851562 -7.777344 C 30.851562 -9.09375 30.167969 -9.40625 28.960938 -9.40625 C 26.332031 -9.40625 23.914062 -8.199219 21.339844 -8.199219 Z M 21.339844 -8.199219 "/></g></g></g><g fill="#ed1c24" fill-opacity="1"><g transform="translate(177.872617, 301.772805)"><g><path d="M 16.082031 -24.808594 C 16.082031 -27.382812 15.820312 -35.582031 13.457031 -37 C 12.246094 -37.738281 11.246094 -37.683594 9.882812 -37.683594 C 8.882812 -37.683594 7.988281 -37.527344 7.148438 -37.054688 C 4.257812 -35.425781 4.152344 -25.597656 4.152344 -22.546875 C 4.152344 -20.289062 4.257812 -18.082031 4.257812 -15.820312 C 4.257812 -13.085938 4.363281 -2.734375 6.832031 -1.3125 C 7.9375 -0.683594 9.304688 -0.628906 10.5625 -0.628906 C 12.457031 -0.628906 13.980469 -1.472656 14.820312 -3.207031 C 15.925781 -5.464844 16.082031 -12.980469 16.082031 -15.664062 Z M 16.082031 -24.808594 "/></g></g></g><g fill="#ed1c24" fill-opacity="1"><g transform="translate(195.006143, 301.772805)"><g><path d="M 34.742188 -20.8125 C 34.742188 -24.230469 34.53125 -34.003906 32.167969 -36.320312 C 31.429688 -37.054688 29.644531 -37.371094 28.59375 -37.371094 C 25.910156 -37.371094 24.386719 -37.210938 24.386719 -34.058594 C 24.386719 -32.167969 24.546875 -30.328125 24.546875 -28.433594 C 24.546875 -27.332031 24.648438 -21.179688 23.179688 -21.179688 C 20.445312 -21.179688 17.027344 -37.421875 10.667969 -37.421875 C 9.511719 -37.421875 8.566406 -37.421875 7.410156 -37 C 3.574219 -35.636719 3.46875 -25.125 3.46875 -21.707031 C 3.46875 -18.132812 3.46875 -4.414062 5.9375 -2.050781 C 6.832031 -1.207031 8.988281 -1 10.195312 -1 C 12.824219 -1 13.929688 -2.363281 13.929688 -4.941406 C 13.929688 -7.726562 13.71875 -10.511719 13.71875 -13.296875 C 13.71875 -14.035156 13.71875 -17.871094 14.664062 -17.871094 C 16.660156 -17.871094 22.234375 -2.679688 25.28125 -1.261719 C 25.964844 -0.945312 26.648438 -0.894531 27.382812 -0.894531 C 29.117188 -0.894531 30.695312 -1.050781 32.113281 -2.101562 C 34.6875 -3.996094 34.742188 -13.71875 34.742188 -16.765625 Z M 34.742188 -20.8125 "/></g></g></g><g fill="#ed1c24" fill-opacity="1"><g transform="translate(230.00926, 301.772805)"><g><path d="M 14.296875 -11.617188 C 14.296875 -12.351562 14.296875 -13.140625 14.453125 -13.875 C 14.558594 -14.347656 14.714844 -14.820312 15.085938 -15.136719 C 16.082031 -15.976562 18.660156 -15.820312 19.972656 -15.820312 C 21.65625 -15.820312 26.910156 -15.503906 27.910156 -16.976562 C 28.277344 -17.554688 28.382812 -18.394531 28.382812 -19.078125 C 28.382812 -19.921875 28.382812 -21.445312 27.855469 -22.128906 C 27.015625 -23.230469 25.4375 -23.441406 24.125 -23.441406 C 22.546875 -23.441406 20.972656 -23.285156 19.394531 -23.285156 C 17.503906 -23.285156 14.347656 -23.441406 14.347656 -26.015625 C 14.347656 -29.539062 15.769531 -29.484375 18.761719 -29.484375 C 20.5 -29.484375 22.234375 -29.222656 23.96875 -29.222656 C 25.542969 -29.222656 28.960938 -29.171875 28.960938 -31.429688 C 28.960938 -32.796875 28.75 -34.375 27.75 -35.425781 C 26.070312 -37.210938 23.179688 -37.738281 20.8125 -37.738281 C 9.511719 -37.738281 3.519531 -37.632812 3.519531 -24.386719 C 3.519531 -22.285156 3.574219 -20.234375 3.574219 -18.132812 C 3.574219 -15.558594 3.625 -12.980469 3.785156 -10.40625 C 4.046875 -6.464844 5.097656 -3.3125 8.988281 -1.734375 C 12.457031 -0.316406 16.820312 -0.628906 20.550781 -0.628906 C 23.96875 -0.628906 28.90625 -1.417969 28.90625 -5.78125 C 28.90625 -8.25 28.488281 -8.988281 25.910156 -8.988281 C 23.019531 -8.988281 20.078125 -8.828125 17.1875 -8.828125 C 15.292969 -8.828125 14.296875 -9.722656 14.296875 -11.617188 Z M 14.296875 -11.617188 "/></g></g></g></svg>