<svg width="960" height="960" viewBox="0 0 960 960" fill="none" xmlns="http://www.w3.org/2000/svg">
<path d="M295.165 688.184L307.333 686.439C301.776 678.09 296.937 669.286 292.818 660C276.243 666.434 255.596 677.817 245.14 696.494C226.302 730.356 242.398 772.776 242.553 773.206C242.661 773.453 242.745 773.726 242.793 774H334.088L424.963 755.623C427.275 755.232 429.526 754.594 431.718 753.708C433.91 752.836 436.005 751.729 437.993 750.4C439.993 749.072 441.85 747.548 443.562 745.829C445.275 744.11 446.82 742.221 448.197 740.163C449.574 738.106 450.748 735.931 451.73 733.625C452.7 731.32 453.467 728.937 454.018 726.462C454.557 723.987 454.88 721.487 454.976 718.947C455.06 716.42 454.928 713.894 454.557 711.38C454.197 708.879 453.61 706.431 452.796 704.048C451.994 701.664 450.976 699.398 449.754 697.223C448.533 695.061 447.131 693.042 445.55 691.18C443.958 689.317 442.221 687.637 440.329 686.139C438.437 684.655 436.437 683.378 434.317 682.31C432.185 681.242 429.993 680.422 427.718 679.823C425.454 679.237 423.143 678.885 420.808 678.781C418.472 678.69 416.149 678.833 413.849 679.224L296.231 695.973C295.273 696.038 294.41 695.738 293.668 695.061C292.925 694.397 292.494 693.55 292.363 692.508C292.243 691.466 292.458 690.515 293.021 689.669C293.584 688.809 294.339 688.275 295.285 688.08L295.165 688.184Z" fill="#6D6E71"/>
<path d="M557.491 112H369.52L320 452H607L557.491 112Z" fill="#ED1C24"/>
<path d="M324.944 418.132L320 452H624L571.558 92H561.197L601.375 423.737C601.375 423.737 418.602 416.454 324.944 418.132Z" fill="#D30F1E"/>
<path d="M299.955 645.827C304.252 657.155 309.469 667.818 315.607 677.815C315.891 678.258 316.084 678.757 316.198 679.298L380.884 668.968C380.736 668.622 380.543 668.303 380.418 667.97C372.746 649.113 375.542 626.207 387.045 613.534C397.002 602.566 411.05 600.778 422.167 600.459H428.168C437.955 600.348 447.195 600.251 455.652 596.257C465.029 591.848 473.452 580.256 471.44 568.415C471.303 567.542 471.394 566.696 471.69 565.892C471.997 565.074 472.463 564.436 473.088 563.992C473.725 563.535 474.395 563.34 475.134 563.41C475.861 563.479 476.509 563.812 477.066 564.38C477.635 563.812 478.282 563.479 479.01 563.41C479.737 563.34 480.419 563.535 481.056 563.992C481.681 564.436 482.147 565.074 482.454 565.892C482.749 566.696 482.829 567.542 482.693 568.415C480.692 580.243 489.149 591.848 498.48 596.257C506.937 600.251 516.178 600.348 525.976 600.459H531.966C543.093 600.778 557.131 602.566 567.088 613.534C578.602 626.207 581.398 649.113 573.726 667.942C567.406 683.499 554.846 695.909 538.388 702.856C524.021 708.915 508.869 710.288 494.229 711.605H459.88L454.834 711.134C454.72 711.258 454.606 711.369 454.481 711.466C454.595 714.434 454.504 717.387 454.186 720.34C453.867 723.28 453.345 726.164 452.606 729.006C451.867 731.835 450.924 734.552 449.787 737.187C448.65 739.808 447.332 742.289 445.831 744.619C444.32 746.962 442.66 749.111 440.842 751.094C439.023 753.063 437.068 754.824 434.999 756.377C432.919 757.93 430.737 759.233 428.475 760.315C426.202 761.382 423.872 762.214 421.473 762.769L372.03 774H491.945C530.943 773.612 568.952 764.849 601.858 748.376C602.278 748.182 602.71 748.099 603.165 748.113C603.619 748.127 604.051 748.252 604.472 748.473C604.881 748.695 605.245 749 605.563 749.402C605.881 749.791 606.12 750.248 606.29 750.747C606.461 751.26 606.552 751.787 606.552 752.342C606.552 752.897 606.472 753.423 606.302 753.937C606.131 754.45 605.893 754.907 605.586 755.295C605.267 755.697 604.915 756.016 604.495 756.238C588.968 763.906 573.01 769.826 556.608 774H837.039C837.789 772.669 838.471 771.296 839.085 769.868C839.699 768.44 840.244 766.97 840.722 765.473C841.199 763.975 841.597 762.436 841.927 760.883C842.256 759.316 842.506 757.75 842.688 756.155C842.87 754.547 842.961 752.952 842.995 751.344C843.018 749.735 842.961 748.127 842.836 746.518C842.7 744.924 842.495 743.329 842.222 741.763C841.938 740.182 841.586 738.629 841.154 737.118C840.722 735.592 840.222 734.109 839.653 732.653C839.074 731.197 838.437 729.797 837.732 728.438C837.028 727.065 836.255 725.762 835.425 724.514C834.595 723.266 833.709 722.073 832.754 720.95C831.811 719.827 830.822 718.773 829.776 717.789C828.73 716.805 827.639 715.903 826.503 715.071C825.366 714.239 824.207 713.491 823.002 712.825C821.797 712.173 820.558 711.591 819.296 711.106L700.234 664.878C699.779 664.712 699.37 664.434 699.017 664.032C690.049 681.614 679.149 697.185 666.294 710.745C665.646 711.439 664.884 711.785 664.009 711.799C663.281 711.785 662.622 711.536 662.031 711.036C661.429 710.523 661.008 709.858 660.758 709.026C660.497 708.208 660.463 707.362 660.633 706.502C660.815 705.643 661.179 704.922 661.724 704.339C696.323 667.526 714.601 619.524 714.601 565.476C714.567 545.495 712.361 525.876 707.997 506.616C703.621 487.371 697.244 469.152 688.856 452H311.754C303.365 469.152 296.989 487.357 292.613 506.603C288.248 525.848 286.043 545.454 286.009 565.434C285.77 593.193 290.305 619.746 299.603 645.092C299.74 645.314 299.853 645.563 299.955 645.827ZM312.709 491.6C312.709 491.032 312.788 490.491 312.97 489.978C313.14 489.465 313.391 489.007 313.72 488.605C314.05 488.203 314.425 487.898 314.845 487.69C315.266 487.468 315.709 487.371 316.175 487.371H633.82C634.286 487.371 634.729 487.468 635.161 487.676C635.582 487.898 635.957 488.203 636.286 488.591C636.616 488.993 636.866 489.451 637.048 489.978C637.218 490.491 637.309 491.032 637.309 491.6V543.235C637.309 545.731 637.105 548.199 636.707 550.653C636.309 553.094 635.707 555.479 634.922 557.78C634.138 560.082 633.183 562.273 632.047 564.353C630.91 566.419 629.614 568.346 628.171 570.107C626.716 571.868 625.147 573.448 623.442 574.835C621.749 576.222 619.953 577.4 618.055 578.357C616.168 579.314 614.213 580.035 612.212 580.52C610.201 581.019 608.177 581.255 606.131 581.269H537.24C535.194 581.255 533.171 581.019 531.159 580.52C529.147 580.035 527.203 579.314 525.316 578.357C523.418 577.4 521.622 576.222 519.929 574.835C518.224 573.448 516.644 571.868 515.2 570.107C513.757 568.346 512.461 566.419 511.324 564.353C510.188 562.273 509.222 560.082 508.437 557.78C507.653 555.479 507.062 553.094 506.664 550.653C506.266 548.199 506.062 545.731 506.062 543.235V527.248H444.411V543.235C444.411 545.745 444.206 548.213 443.808 550.667C443.399 553.122 442.808 555.493 442.024 557.808C441.239 560.124 440.273 562.314 439.137 564.394C438 566.474 436.704 568.388 435.249 570.162C433.806 571.923 432.226 573.504 430.521 574.904C428.816 576.291 427.02 577.456 425.122 578.426C423.224 579.383 421.28 580.104 419.268 580.589C417.256 581.088 415.222 581.324 413.165 581.338H343.943C341.897 581.324 339.863 581.088 337.851 580.589C335.839 580.104 333.884 579.383 331.986 578.426C330.099 577.456 328.292 576.291 326.587 574.904C324.882 573.504 323.313 571.923 321.858 570.162C320.404 568.388 319.119 566.474 317.971 564.394C316.835 562.314 315.868 560.124 315.084 557.808C314.3 555.493 313.709 553.122 313.311 550.667C312.902 548.213 312.709 545.745 312.709 543.235V491.6Z" fill="white"/>
<path d="M635.736 487.371C636.207 487.371 636.655 487.468 637.092 487.676C637.517 487.898 637.897 488.203 638.23 488.591C638.563 488.993 638.816 489.451 639 489.978C639.172 490.491 639.264 491.032 639.264 491.6V543.235C639.276 550.972 637.471 558.044 633.885 564.45C629.828 642.374 593.586 733.069 448.759 738.962C447.287 742.026 445.563 744.868 443.586 747.489C441.609 750.11 439.414 752.439 437.023 754.491C434.632 756.543 432.08 758.276 429.379 759.677C426.678 761.063 423.885 762.103 421 762.769L371 774H492.264C531.701 773.612 570.138 764.849 603.414 748.376C603.839 748.182 604.276 748.099 604.736 748.113C605.195 748.127 605.632 748.252 606.057 748.473C606.471 748.695 606.839 749 607.161 749.402C607.483 749.791 607.724 750.248 607.897 750.747C608.069 751.26 608.161 751.787 608.161 752.342C608.161 752.897 608.08 753.423 607.908 753.937C607.736 754.45 607.494 754.907 607.184 755.295C606.862 755.697 606.506 756.016 606.08 756.238C590.379 763.906 574.241 769.826 557.655 774H666.149L698.391 746.158C698.391 746.158 711.874 707.32 724 673.031L702.862 664.92C702.402 664.753 701.989 664.476 701.632 664.074C692.563 681.669 681.529 697.24 668.54 710.787C667.874 711.48 667.103 711.827 666.23 711.841C665.494 711.841 664.828 711.577 664.218 711.078C663.621 710.579 663.195 709.899 662.931 709.081C662.678 708.249 662.644 707.404 662.816 706.544C663 705.684 663.368 704.977 663.92 704.395C698.897 667.568 717.391 619.565 717.391 565.517C717.356 545.537 715.138 525.917 710.724 506.644C706.322 487.385 699.874 469.166 691.391 452H621.011C624.299 463.592 626.92 475.391 628.897 487.413L635.736 487.371Z" fill="#E6E7E8"/>
<path d="M343.754 587H411.48C413.037 586.986 414.583 586.778 416.107 586.389C417.63 586.001 419.109 585.432 420.544 584.682C421.978 583.933 423.335 583.017 424.625 581.934C425.915 580.852 427.116 579.63 428.206 578.256C429.307 576.882 430.286 575.383 431.153 573.773C432.02 572.163 432.743 570.456 433.344 568.666C433.944 566.876 434.389 565.03 434.701 563.128C435.001 561.227 435.168 559.312 435.168 557.369V537.175C435.168 536.523 435.279 535.912 435.501 535.329C435.724 534.746 436.035 534.26 436.447 533.858C436.858 533.455 437.314 533.178 437.814 533.039C438.326 532.9 438.826 532.914 439.338 533.053C439.583 532.983 439.838 532.942 440.105 532.942H503.049C503.517 532.942 503.972 533.053 504.406 533.289C504.829 533.053 505.274 532.942 505.741 532.942C506.197 532.942 506.63 533.053 507.053 533.261C507.464 533.469 507.831 533.775 508.154 534.177C508.476 534.579 508.721 535.037 508.899 535.551C509.066 536.065 509.155 536.62 509.155 537.175V557.438C509.155 559.381 509.311 561.296 509.622 563.198C509.922 565.113 510.378 566.959 510.968 568.749C511.568 570.54 512.302 572.233 513.158 573.857C514.026 575.467 515.004 576.952 516.105 578.326C517.206 579.7 518.407 580.921 519.697 582.004C520.987 583.072 522.355 583.988 523.79 584.738C525.224 585.473 526.715 586.042 528.238 586.417C529.762 586.806 531.308 586.986 532.853 587H600.279C601.836 586.986 603.371 586.806 604.905 586.417C606.429 586.042 607.908 585.487 609.343 584.738C610.788 584.002 612.156 583.086 613.446 582.004C614.736 580.935 615.937 579.7 617.038 578.34C618.139 576.966 619.118 575.467 619.985 573.857C620.853 572.247 621.587 570.54 622.176 568.749C622.777 566.959 623.233 565.113 623.533 563.212C623.844 561.31 624 559.381 624 557.438V510H320V557.369C320 559.312 320.156 561.241 320.467 563.142C320.778 565.044 321.234 566.903 321.835 568.694C322.424 570.484 323.158 572.191 324.026 573.801C324.893 575.411 325.883 576.91 326.984 578.284C328.085 579.658 329.286 580.893 330.576 581.962C331.866 583.045 333.234 583.961 334.68 584.71C336.114 585.459 337.593 586.028 339.128 586.403C340.651 586.792 342.197 586.986 343.754 587Z" fill="#FFE6BC"/>
<path d="M846.508 733.149C848.38 739.886 849.096 746.809 848.634 753.918C848.183 761.028 846.589 767.722 843.874 774H911C910.815 773.384 910.769 772.739 910.85 772.094C910.965 770.445 910.965 768.797 910.827 767.148C910.7 765.514 910.445 763.895 910.076 762.304C909.694 760.727 909.209 759.193 908.597 757.731C907.985 756.255 907.28 754.864 906.459 753.56C905.639 752.256 904.726 751.066 903.721 749.977C902.728 748.873 901.653 747.912 900.509 747.067C899.354 746.235 898.152 745.533 896.905 744.974C895.645 744.415 894.363 743.999 893.046 743.741C891.96 743.569 890.874 743.526 889.788 743.483C887.8 743.455 885.848 743.211 883.895 742.752C881.793 742.351 879.898 741.333 878.223 739.699C876.547 738.065 875.311 736.03 874.502 733.579C873.185 728.863 874.502 724.419 875.623 720.822C876.178 719.231 876.582 717.582 876.848 715.891C877.529 709.742 872.215 704.08 866.992 703.076C860.037 702.016 853.29 703.062 846.751 706.201C846.231 706.459 845.676 706.545 845.122 706.473C844.555 706.416 844.036 706.187 843.562 705.814C843.088 705.441 842.707 704.954 842.418 704.352C842.129 703.75 841.967 703.091 841.933 702.403C841.806 699.923 841.344 697.529 840.569 695.25C839.784 692.957 838.709 690.893 837.358 689.058C836.006 687.237 834.435 685.732 832.667 684.557C830.899 683.396 829.027 682.622 827.04 682.249C825.065 681.877 823.089 681.92 821.113 682.393C819.149 682.851 817.289 683.711 815.556 684.973C813.835 686.22 812.309 687.797 811.015 689.689C809.721 691.581 808.716 693.702 808 696.024L819.669 700.625C822.777 701.829 825.735 703.478 828.542 705.542C831.338 707.62 833.903 710.071 836.237 712.895C838.571 715.719 840.604 718.844 842.337 722.269C844.07 725.695 845.457 729.322 846.508 733.149Z" fill="#FFE6BC"/>
<path d="M691 452L637.999 92H572L625.001 452H691Z" fill="#D30F1E"/>
<path d="M86.6336 774H237.806C234.869 763.972 225.026 724.312 241.28 690.48C251.323 669.476 270.493 656.928 286 649.82C282.126 638.298 279.231 626.403 277.315 614.107C276.146 614.787 275.052 614.627 274.03 613.654C268.44 608.2 261.998 603.012 256.576 605.759C252.155 607.96 249.881 614.947 247.649 621.655L247.344 622.615C243.396 634.551 238.09 640.818 231.542 641.232C226.784 641.538 222.72 638.418 219.12 635.671C215.53 632.924 212.709 630.79 209.887 631.603C206.771 632.484 204.845 637.258 204.676 641.272C204.392 646.046 205.645 650.873 206.95 656.021L207.203 657.074C208.698 662.942 210.193 669.756 209.098 676.571C208.677 679.224 207.519 681.185 205.624 682.465C200.265 686.399 191.244 682.772 190.243 682.358C189.233 681.932 188.317 681.478 187.338 681.011C183.864 679.385 180.6 677.851 177.769 678.811C174 680.105 171.915 685.932 171.852 690.72C171.768 696.747 173.916 702.962 175.811 708.483C175.979 708.963 176.063 709.456 176.084 709.963C176.095 710.483 176.042 710.99 175.905 711.47C175.768 711.963 175.568 712.403 175.295 712.79C175.031 713.19 174.716 713.497 174.347 713.737C168.568 717.511 161.914 713.563 157.609 708.589C154.377 704.882 151.008 701.588 148.303 702.748C146.608 703.882 145.218 705.455 144.155 707.469C142.102 710.616 139.754 714.07 135.88 714.99C130.954 716.017 127.322 711.937 124.427 708.643C122.426 706.442 120.553 704.242 118.658 703.869C117.394 703.642 116.268 704.055 115.289 705.095C113.289 707.189 112.131 709.87 111.815 713.123C111.678 717.657 112.131 722.085 113.183 726.419C113.552 728.419 113.931 730.393 114.226 732.38C115.099 738.247 115.657 749.049 109.657 755.544C105.941 759.584 101.14 760.331 96.5503 760.731C92.9921 761.038 89.3075 761.358 86.8757 763.665C85.7177 764.839 85.0966 766.372 85.0229 768.239C84.9281 769.066 85.1282 769.759 85.6124 770.333C86.4757 771.32 86.8231 772.546 86.6336 774Z" fill="#FFE6BC"/>
<path d="M486.795 774H49V811H943V774H486.795Z" fill="#C49A6C"/>
<path d="M481.393 699H496.523C510.374 697.821 524.67 696.565 537.866 691.337C552.251 685.583 563.167 675.536 568.559 663.016C574.628 648.908 572.483 631.326 563.59 621.997C555.519 613.552 543.413 612.219 533.641 611.963C531.807 611.963 529.806 611.963 527.883 611.86C518.112 611.86 508.029 611.668 498.546 607.439C494.378 605.62 490.698 602.929 487.474 599.379C484.261 595.842 481.771 591.703 480.004 587C478.236 591.716 475.746 595.842 472.522 599.392C469.299 602.929 465.608 605.62 461.439 607.439C452.023 611.668 441.918 611.668 432.102 611.86C430.268 611.86 428.256 611.86 426.344 611.963C416.639 612.219 404.466 613.59 396.396 622.022C387.503 631.262 385.39 648.908 391.427 663.016C391.927 664.131 392.494 665.233 393.061 666.323L411.714 663.516C407.635 655.763 405.734 642.167 411.292 635.298C412.026 634.427 412.815 633.645 413.671 632.941C414.527 632.223 415.427 631.608 416.372 631.095C417.317 630.57 418.307 630.147 419.318 629.827C420.33 629.506 421.364 629.288 422.409 629.186C423.454 629.07 424.499 629.07 425.555 629.173C426.6 629.276 427.633 629.493 428.645 629.814C429.657 630.121 430.646 630.544 431.591 631.057C432.547 631.582 433.447 632.184 434.303 632.889C438.483 636.49 441.251 642.129 442.541 649.792C447.999 647.767 453.591 647.101 459.294 647.831C461.628 648.177 463.807 649.049 465.83 650.432C467.842 651.804 469.554 653.585 470.944 655.763C471.989 657.378 472.711 659.159 473.1 661.12C473.489 663.081 473.512 665.054 473.178 667.027C473.011 667.848 472.8 668.668 472.556 669.475C472.289 670.257 472.122 671.077 472.078 671.923C472.078 672.794 473.367 673.909 474.957 674.652C475.546 674.921 476.146 675.152 476.791 675.383C478.97 676.087 480.971 677.228 482.772 678.804C483.817 679.855 484.662 681.085 485.295 682.495C485.94 683.904 486.351 685.391 486.507 686.98C486.663 688.556 486.574 690.119 486.229 691.657C485.873 693.208 485.306 694.617 484.495 695.912C483.639 697.18 482.616 698.218 481.393 699Z" fill="#232323"/>
<path d="M471.258 693.592C471.853 692.659 472.093 691.63 471.967 690.505C471.842 689.392 471.384 688.447 470.606 687.681C469.404 686.784 468.099 686.126 466.68 685.707C465.936 685.444 465.226 685.193 464.505 684.893C460.236 683.123 457.558 680.012 457.157 676.363C457.043 674.508 457.306 672.725 457.947 670.99C458.13 670.488 458.279 669.985 458.382 669.459C458.68 667.712 458.302 666.133 457.249 664.721C455.464 662.22 453.083 660.748 450.119 660.306C443.927 659.636 437.998 660.629 432.31 663.285C431.795 663.536 431.257 663.644 430.685 663.62C430.113 663.584 429.586 663.429 429.082 663.129C428.59 662.83 428.19 662.435 427.881 661.933C427.583 661.43 427.4 660.88 427.343 660.294C426.908 655.245 425.454 648.46 421.037 645.062C419.961 644.285 418.77 643.722 417.5 643.375C416.23 643.04 414.936 642.921 413.62 643.052C412.315 643.172 411.056 643.519 409.866 644.105C408.676 644.68 407.611 645.457 406.673 646.426C403.422 650.076 405.299 661.059 408.962 665.474C409.431 666.037 409.706 666.695 409.774 667.449C411.949 667.52 414.101 667.784 416.241 668.226C418.381 668.657 420.464 669.267 422.513 670.057C424.562 670.835 426.53 671.78 428.43 672.893C430.33 674.005 432.138 675.262 433.844 676.674C435.549 678.085 437.151 679.629 438.616 681.304C440.093 682.979 441.432 684.762 442.645 686.652C443.847 688.555 444.9 690.529 445.804 692.599C446.697 694.669 447.441 696.798 448.024 699C450.886 696.356 454.159 694.525 457.856 693.52C460.602 692.659 463.189 693.018 465.615 694.585C466.554 695.159 467.55 695.351 468.614 695.159C469.678 694.98 470.56 694.453 471.258 693.592Z" fill="#FFE6BC"/>
<path d="M455 649.315C458.23 650.717 460.871 652.922 462.924 655.918C464.053 657.511 464.833 659.296 465.253 661.246C465.674 663.196 465.698 665.146 465.337 667.109C465.157 667.937 464.929 668.74 464.665 669.543C464.377 670.334 464.209 671.137 464.149 671.978C464.149 672.845 465.542 673.954 467.259 674.693C467.895 674.961 468.555 675.203 469.24 675.432C471.593 676.133 473.754 677.268 475.699 678.835C476.828 679.868 477.74 681.092 478.436 682.494C479.121 683.896 479.565 685.387 479.733 686.955C479.901 688.535 479.805 690.09 479.433 691.62C479.049 693.149 478.436 694.564 477.56 695.852C476.636 697.152 475.495 698.197 474.15 699H490.491C505.451 697.827 520.903 696.578 535.143 691.378C550.691 685.655 562.469 675.662 568.292 663.209C570.633 658.212 571.858 652.935 571.99 647.378C572.11 641.808 571.126 636.48 569.025 631.381C555.433 626.397 541.446 623.937 527.062 624.001C498.043 624.001 471.977 633.88 455 649.315Z" fill="#FF7D87"/>
<path d="M405 92L360.199 452H320L367.482 92H405Z" fill="white"/>
<path d="M522 92L575.755 452H624L567.015 92H522Z" fill="white"/>
<path d="M607 92L659.084 452H691L635.76 92H607Z" fill="#E6E7E8"/>
<path d="M445.797 92L421 452H505L480.216 92H445.797Z" fill="white"/>
<path d="M582.697 473.622C568.815 476.154 555.951 482.01 544.115 491.22H635.508C635.967 491.22 636.403 491.316 636.828 491.521C637.242 491.74 637.611 492.041 637.935 492.424C638.26 492.821 638.506 493.273 638.685 493.793C638.853 494.299 638.942 494.833 638.942 495.394V546.354C638.942 548.817 638.741 551.253 638.349 553.675C637.958 556.084 637.365 558.438 636.593 560.709C635.821 562.981 634.881 565.143 633.763 567.196C632.644 569.235 631.369 571.137 629.948 572.875C628.516 574.613 626.973 576.173 625.295 577.541C623.628 578.909 621.861 580.073 619.992 581.017C618.136 581.961 616.211 582.673 614.243 583.152C612.263 583.644 610.272 583.877 608.258 583.891H540.457C537.124 583.891 533.88 583.247 530.725 581.947C527.56 580.647 524.662 578.773 522 576.309C524.461 581.633 527.649 586.189 531.587 589.98C540.491 598.478 551.879 601.639 562.953 604.54L620.473 619.716C632.499 622.877 645.072 626.066 656.975 622.275C678.71 615.351 691.943 585.888 690.948 558.465C690.097 534.996 679.269 499.335 662.008 486.184C640.475 469.695 606.96 468.641 582.697 473.622Z" fill="#6D6E71"/>
<path d="M627.796 490.203H634.501C634.966 490.203 635.41 490.299 635.842 490.506C636.262 490.727 636.637 491.03 636.967 491.416C637.296 491.816 637.546 492.27 637.728 492.794C637.898 493.304 637.989 493.842 637.989 494.407V545.743C637.989 546.929 637.989 548.018 637.842 549.217C637.842 549.562 637.842 549.906 637.751 550.251C637.751 551.092 637.558 551.905 637.433 552.718C637.433 553.063 637.33 553.408 637.273 553.725C637.092 554.814 636.864 555.903 636.58 556.964C636.307 557.998 636.001 558.991 635.671 559.997L635.33 560.921C635.069 561.651 634.762 562.382 634.466 563.085C634.33 563.374 634.228 563.678 634.069 563.995C633.637 564.918 633.194 565.856 632.705 566.738C631.853 585.265 628.955 603.31 624 620.872C634.785 623.588 645.865 625.587 656.433 622.264C678.526 615.289 691.958 585.624 690.947 557.998C690.083 534.343 679.082 498.419 661.559 485.185C651.024 477.231 637.728 472.861 624.057 471C625.205 476.293 626.523 482.773 627.796 490.203Z" fill="#58595B"/>
<path d="M392.406 604.54C403.187 601.638 414.339 598.477 422.942 589.979C434.322 578.839 439.505 559.434 437.621 541.466V546.283C437.621 548.76 437.425 551.196 437.044 553.618C436.663 556.04 436.097 558.394 435.334 560.666C434.583 562.951 433.668 565.113 432.568 567.166C431.479 569.219 430.238 571.107 428.855 572.859C427.461 574.597 425.947 576.157 424.314 577.539C422.68 578.908 420.96 580.071 419.141 581.015C417.333 581.96 415.46 582.671 413.533 583.15C411.605 583.643 409.656 583.875 407.696 583.889H341.441C339.481 583.875 337.532 583.643 335.604 583.15C333.677 582.671 331.804 581.96 329.985 581.015C328.178 580.071 326.446 578.908 324.813 577.539C323.179 576.157 321.676 574.597 320.282 572.859C318.888 571.107 317.658 569.219 316.558 567.166C315.469 565.113 314.543 562.951 313.792 560.666C313.041 558.394 312.474 556.04 312.093 553.618C311.701 551.196 311.516 548.76 311.516 546.283V495.389C311.516 494.828 311.592 494.294 311.766 493.788C311.93 493.282 312.169 492.83 312.485 492.433C312.801 492.036 313.16 491.735 313.563 491.53C313.966 491.311 314.391 491.215 314.837 491.215H410.854C399.332 482.005 386.82 476.148 373.305 473.617C351.057 468.923 320.805 469.607 299.744 483.497C290.618 510.579 286.044 538.811 286.001 568.206C285.957 584.628 287.515 600.804 290.673 616.746C293.853 619.223 297.25 621.057 300.855 622.275C312.463 626.066 324.704 622.877 336.41 619.716L392.406 604.54Z" fill="#6D6E71"/>
<path d="M819.362 708.843L700.629 660.878C700.175 660.705 699.767 660.417 699.416 660C690.473 678.257 679.602 694.413 666.783 708.469C666.136 709.188 665.377 709.548 664.504 709.562C663.45 709.562 662.577 709.059 661.886 708.037C661.421 707.361 661.138 706.57 661.07 705.678C645.598 725.503 627.666 740.637 607.274 751.082C607.354 752.046 607.195 752.938 606.81 753.772C606.413 754.607 605.869 755.211 605.155 755.585C597.9 759.326 590.419 762.692 582.723 765.685C579.844 768.058 576.976 770.288 574.04 772.417C573.372 772.921 572.68 773.468 572 774H837.056C837.804 772.633 838.484 771.195 839.096 769.727C839.708 768.245 840.252 766.72 840.728 765.167C841.204 763.613 841.601 762.016 841.93 760.405C842.258 758.779 842.508 757.139 842.689 755.484C842.87 753.83 842.961 752.175 842.995 750.507C843.018 748.823 842.961 747.169 842.836 745.5C842.7 743.831 842.496 742.191 842.224 740.551C841.941 738.925 841.59 737.314 841.159 735.731C840.728 734.163 840.229 732.61 839.663 731.113C839.085 729.603 838.45 728.15 837.747 726.725C837.044 725.315 836.273 723.963 835.446 722.668C834.619 721.374 833.734 720.136 832.782 718.971C831.842 717.806 830.855 716.712 829.813 715.691C828.77 714.669 827.682 713.72 826.548 712.871C825.415 712.008 824.258 711.231 823.057 710.54C821.855 709.85 820.62 709.26 819.362 708.756V708.843Z" fill="#6D6E71"/>
<path d="M371 414.022L366.114 452H320L325.125 414.272C338.836 414.022 354.391 413.96 371 414.022Z" fill="#E6E7E8"/>
<path d="M624 452H576.475L572.17 422.814H572.663C574.217 422.856 575.759 422.716 577.289 422.395C578.818 422.059 580.298 421.542 581.729 420.843C583.148 420.144 584.492 419.278 585.763 418.243C587.021 417.209 588.168 416.035 589.192 414.721C590.228 413.393 591.128 411.967 591.881 410.43C592.633 408.892 593.237 407.271 593.669 405.58C594.113 403.902 594.397 402.169 594.496 400.422C594.607 398.66 594.545 396.913 594.311 395.166L555 92H567.877L624 452Z" fill="#E6E7E8"/>
<path d="M505 452H421L423.308 414C450.635 414.575 477.998 415.342 502.841 416.125L505 452Z" fill="#E6E7E8"/>
<path d="M371 414.022L366.114 452H320L325.089 414.272C338.836 414.022 354.391 413.96 371 414.022Z" fill="#E6E7E8"/>
<path d="M843 765.685C820.755 764.447 799.082 759.369 777.992 750.435C763.307 744.205 748.645 735.731 738.534 721.014C729.385 707.706 724.89 688.27 729.522 671.984L701.787 660.878C701.318 660.705 700.918 660.417 700.552 660C691.54 678.257 680.56 694.413 667.636 708.469C666.973 709.188 666.207 709.548 665.337 709.562C664.274 709.562 663.393 709.059 662.696 708.037C662.215 707.361 661.941 706.57 661.861 705.678C646.261 725.503 628.167 740.637 607.581 751.082C607.661 752.046 607.512 752.938 607.112 753.772C606.723 754.607 606.162 755.211 605.453 755.585C598.134 759.326 590.585 762.692 582.808 765.685C579.903 768.058 577.021 770.288 574.059 772.417C573.372 772.921 572.675 773.468 572 774H839.512C840.918 771.396 842.085 768.619 843 765.685Z" fill="#58595B"/>
<path d="M624 557.344V510H610.799V559.062L544.943 573.481C544.943 573.481 529.262 577.692 522 557.51C522 559.45 522.138 561.361 522.405 563.259C522.682 565.156 523.077 566.999 523.611 568.785C524.134 570.572 524.786 572.276 525.557 573.883C526.328 575.489 527.197 576.985 528.176 578.357C529.154 579.714 530.211 580.947 531.367 582.013C532.513 583.094 533.729 584.008 535.003 584.742C536.278 585.49 537.592 586.044 538.946 586.432C540.309 586.806 541.673 587 543.056 587H602.944C604.327 587 605.7 586.806 607.064 586.418C608.417 586.044 609.742 585.476 611.026 584.728C612.301 583.98 613.516 583.066 614.672 581.986C615.818 580.905 616.885 579.673 617.864 578.287C618.842 576.916 619.711 575.42 620.482 573.8C621.253 572.179 621.895 570.475 622.419 568.675C622.952 566.874 623.347 565.032 623.614 563.12C623.871 561.209 624.009 559.297 624 557.344Z" fill="#E2C191"/>
<path d="M285.845 644.515C284.78 644.164 283.705 643.953 282.621 643.911C281.528 644.881 280.372 645.612 279.151 646.076C277.931 646.554 276.692 646.765 275.435 646.695C274.179 646.639 272.949 646.301 271.756 645.711C270.554 645.106 269.434 644.276 268.386 643.194C264.26 638.793 260.353 631.607 261.255 624C258.25 631.888 251.055 635.896 245.973 631.185C247.594 634.476 250.69 637.049 251.41 640.986C251.974 644.248 252.011 647.511 251.51 650.801C251.018 654.077 250.053 656.988 248.623 659.533C245.763 664.469 241.929 668.406 237.621 668.476H236C241.373 674.452 241.665 688.542 236.537 695.038C238.678 702.336 239.907 709.999 240.235 718C241.301 707.159 243.659 697.035 247.311 687.613C256 665.467 272.585 652.235 286 644.74C285.954 644.656 285.9 644.586 285.845 644.515Z" fill="#E2C191"/>
<path d="M236 774C232.213 758.182 230.351 741.875 230.424 725.049C230.08 727.206 229.435 729.142 228.478 730.826C227.531 732.526 226.376 733.801 225.013 734.651C220.706 736.901 215.9 732.054 213.944 725.899C211.988 719.761 212.227 712.473 212.331 705.563C211.332 707.153 210.136 708.286 208.752 708.948C207.368 709.593 205.964 709.719 204.539 709.278C201.719 708.381 199.087 706.791 196.632 704.509C192.99 701.518 187.726 701.912 184.064 699C187.84 705.044 191.503 712.269 191.555 720.563C191.607 728.858 186.061 737.342 180.943 734.336C178.914 732.793 177.239 730.637 175.917 727.851C174.607 725.049 172.89 723.035 170.768 721.807C168.624 720.957 165.878 722.657 165.618 725.978C168.156 729.346 169.717 733.533 170.289 738.57C170.403 739.782 170.383 740.994 170.227 742.206C170.07 743.418 169.79 744.551 169.384 745.621C168.978 746.691 168.468 747.62 167.844 748.423C167.23 749.226 166.544 749.855 165.784 750.312C162.684 751.744 157.211 748.218 157.846 743.418C157.586 745.275 157.232 747.069 156.764 748.832C156.306 750.595 155.755 752.279 155.099 753.9C154.444 755.522 153.705 757.048 152.883 758.465C152.061 759.897 151.167 761.204 150.189 762.4C149.221 763.596 148.191 764.651 147.099 765.579C146.006 766.508 144.872 767.295 143.686 767.924C142.511 768.57 141.304 769.042 140.066 769.357C138.838 769.687 137.589 769.845 136.341 769.845C135.082 769.75 133.844 769.498 132.627 769.073C131.399 768.664 130.203 768.098 129.048 767.358C127.893 766.634 126.78 765.768 125.719 764.761C124.657 763.738 123.659 762.604 122.733 761.329C121.796 760.055 120.943 758.669 120.173 757.19C119.393 755.695 118.717 754.105 118.113 752.437C117.52 750.768 117.021 749.037 116.626 747.242C116.23 745.448 115.929 743.607 115.741 741.733L113.629 741.907C112.901 745.967 111.476 749.383 109.374 752.137C105.701 756.907 100.947 757.788 96.4212 758.26C92.8943 758.622 89.2633 759 86.86 761.723C85.7156 763.108 85.1018 764.918 85.0185 767.122C84.9353 768.098 85.133 768.916 85.6011 769.593C86.5063 770.758 86.86 772.237 86.6728 774H236Z" fill="#E2C191"/>
<path d="M825 699C825.753 700.81 826.657 702.487 827.712 704.046C828.755 705.62 829.925 707.018 831.2 708.269C832.486 709.504 833.865 710.564 835.326 711.432C836.786 712.314 838.304 712.977 839.88 713.433C841.456 713.889 843.044 714.139 844.666 714.168C846.277 714.183 847.876 713.992 849.464 713.594C851.051 713.182 852.581 712.565 854.053 711.741C855.536 710.917 856.927 709.902 858.236 708.695C858.26 710.431 858.422 712.138 858.746 713.815C859.059 715.507 859.523 717.125 860.125 718.67C860.728 720.23 861.458 721.671 862.316 723.01C863.173 724.364 864.147 725.57 865.213 726.629C866.291 727.703 867.438 728.615 868.678 729.351C869.906 730.101 871.193 730.66 872.525 731.028C873.858 731.411 875.202 731.602 876.57 731.602C877.926 731.587 879.282 731.396 880.603 731.014C888.402 728.748 895.575 736.177 901.439 743.004C904.394 746.505 906.701 750.581 908.358 755.259C910.015 759.923 910.896 764.822 911 769.942C886.362 775.577 861.748 775.341 837.168 769.25C840.992 757.113 844.376 743.372 840.598 731.293C838.663 725.923 836.114 721.083 832.95 716.743C829.543 711.785 828.326 704.002 825 699Z" fill="#E2C191"/>
<path d="M425.623 751.495C427.874 750.938 430.053 750.11 432.17 749.011C434.3 747.912 436.321 746.558 438.244 744.965C440.179 743.357 441.968 741.541 443.635 739.486C445.291 737.448 446.8 735.218 448.139 732.797C449.477 730.376 450.622 727.812 451.595 725.12C452.557 722.413 453.323 719.609 453.883 716.727C454.455 713.828 454.796 710.897 454.93 707.903C455.076 704.925 454.991 701.962 454.699 699C456.707 740.107 331.262 753.709 331.262 753.709H236C237.047 760.303 238.495 766.737 240.333 773.028C240.442 773.331 240.515 773.666 240.576 774H333.355L425.623 751.495Z" fill="#58595B"/>
<path d="M303 674.395C299.837 669.738 296.97 664.943 294.373 660C277.341 665.639 256.124 675.617 245.392 691.987C235.609 707.033 234.993 723.963 236.802 737C236.802 737 252.776 676.462 303 674.395Z" fill="#939598"/>
<path d="M942.898 774H49V796H943L942.898 774Z" fill="#FFDEBD"/>
<path d="M554.484 607.842C552.487 602.709 546.21 605.839 543.286 607.145C534.891 611.12 527.29 617.232 520.504 625.45C516.744 629.633 513.484 634.514 510.733 640.121C507.808 645.743 505.893 652.033 505.007 658.975C504.905 660.192 506.025 660.266 506.413 659.509C509.194 654.184 512.383 649.437 515.99 645.298C519.352 641.471 522.419 637.332 525.863 633.787C532.863 627.023 540.26 621.386 548.065 616.846C550.52 615.259 556.837 613.865 554.484 607.842Z" fill="#232323"/>
<path d="M522 510.029H624V520.366C624 523.432 623.738 526.469 623.227 529.477C622.716 532.484 621.955 535.404 620.945 538.237C619.948 541.069 618.714 543.756 617.255 546.296C615.796 548.851 614.138 551.202 612.293 553.377C610.435 555.538 608.415 557.466 606.233 559.174C604.051 560.867 601.757 562.298 599.326 563.481C596.907 564.649 594.414 565.525 591.845 566.123C589.277 566.707 586.671 567.014 584.053 566.999H561.885C559.267 566.999 556.673 566.707 554.105 566.109C551.536 565.51 549.043 564.62 546.624 563.452C544.205 562.284 541.911 560.838 539.729 559.145C537.547 557.436 535.54 555.509 533.682 553.334C531.837 551.173 530.179 548.808 528.72 546.267C527.274 543.727 526.04 541.026 525.042 538.208C524.032 535.375 523.284 532.455 522.773 529.448C522.262 526.44 522 523.403 522 520.352V510V510.029Z" fill="#00AEEF"/>
<path d="M336 510.029H421V520.366C421 523.432 420.782 526.469 420.356 529.477C419.93 532.484 419.296 535.404 418.454 538.237C417.623 541.069 416.595 543.756 415.379 546.296C414.163 548.851 412.782 551.202 411.233 553.377C409.696 555.538 408.013 557.466 406.194 559.174C404.376 560.867 402.464 562.298 400.438 563.481C398.423 564.649 396.345 565.525 394.204 566.123C392.054 566.707 389.893 567.014 387.711 566.999H369.237C367.055 566.999 364.894 566.707 362.754 566.109C360.614 565.51 358.536 564.62 356.52 563.452C354.504 562.284 352.582 560.838 350.774 559.145C348.956 557.436 347.273 555.509 345.735 553.334C344.187 551.173 342.816 548.808 341.6 546.267C340.385 543.727 339.366 541.026 338.535 538.193C337.694 535.375 337.07 532.455 336.644 529.448C336.218 526.44 336 523.403 336 520.352V510V510.029Z" fill="#ED1C24"/>
<path d="M337.353 587H408.198C410.455 587 412.689 586.749 414.899 586.246C417.121 585.756 419.261 585.015 421.344 584.023C423.438 583.043 425.415 581.839 427.288 580.423C429.161 578.994 430.895 577.38 432.488 575.567C434.094 573.754 435.513 571.782 436.769 569.651C438.026 567.521 439.084 565.271 439.945 562.903C440.806 560.534 441.469 558.099 441.911 555.585C442.353 553.07 442.574 550.53 442.574 547.963V535.471H500.914V548.029C500.914 550.596 501.135 553.123 501.577 555.638C502.02 558.139 502.671 560.574 503.532 562.942C504.393 565.298 505.451 567.547 506.708 569.678C507.952 571.795 509.372 573.767 510.965 575.58C512.559 577.393 514.292 579.007 516.165 580.423C518.038 581.839 520.004 583.043 522.087 584.023C524.169 585.002 526.309 585.743 528.52 586.246C530.73 586.749 532.952 587 535.209 587H605.694C607.939 587 610.173 586.749 612.383 586.259C614.593 585.756 616.734 585.015 618.816 584.036C620.898 583.057 622.876 581.852 624.749 580.436C626.622 579.007 628.344 577.393 629.937 575.58C631.531 573.78 632.962 571.808 634.207 569.678C635.463 567.547 636.522 565.311 637.383 562.942C638.243 560.587 638.895 558.139 639.337 555.638C639.779 553.123 640 550.596 640 548.029V498.749C640 497.849 639.849 496.989 639.546 496.155C639.244 495.335 638.813 494.607 638.255 493.972C637.697 493.337 637.057 492.847 636.336 492.516C635.603 492.172 634.847 492 634.055 492H308.933C308.142 492 307.386 492.172 306.664 492.516C305.932 492.86 305.292 493.35 304.733 493.985C304.187 494.607 303.756 495.335 303.454 496.168C303.151 496.989 303 497.849 303 498.749V547.963C303 550.53 303.221 553.07 303.663 555.585C304.105 558.099 304.768 560.534 305.629 562.903C306.49 565.271 307.549 567.521 308.805 569.651C310.061 571.782 311.481 573.74 313.074 575.553C314.668 577.366 316.401 578.994 318.274 580.41C320.147 581.839 322.125 583.043 324.207 584.023C326.301 585.002 328.442 585.743 330.652 586.246C332.862 586.749 335.096 587 337.353 587ZM314.877 505.511H628.111V548.029C628.099 549.709 627.96 551.363 627.669 553.004C627.378 554.632 626.948 556.233 626.389 557.768C625.831 559.316 625.133 560.785 624.319 562.175C623.504 563.564 622.574 564.848 621.527 566.026C620.491 567.217 619.363 568.275 618.13 569.202C616.908 570.128 615.617 570.909 614.268 571.557C612.906 572.192 611.499 572.682 610.056 573.013C608.614 573.343 607.16 573.502 605.694 573.502H535.186C533.72 573.502 532.254 573.343 530.811 573.013C529.369 572.682 527.973 572.205 526.612 571.557C525.251 570.922 523.96 570.141 522.738 569.202C521.517 568.275 520.388 567.217 519.341 566.039C518.306 564.861 517.375 563.564 516.549 562.175C515.735 560.785 515.049 559.316 514.479 557.781C513.92 556.233 513.49 554.645 513.211 553.004C512.92 551.363 512.769 549.709 512.769 548.029V528.708C512.769 527.809 512.617 526.948 512.315 526.128C512.012 525.294 511.582 524.567 511.024 523.931C510.465 523.309 509.825 522.82 509.092 522.476C508.371 522.132 507.615 521.973 506.824 521.973C506.347 521.973 505.882 522.052 505.416 522.185C504.951 522.052 504.486 521.973 503.997 521.973H438.212C437.944 521.946 437.677 521.946 437.409 521.973C437.142 521.946 436.874 521.946 436.606 521.973C435.815 521.973 435.059 522.145 434.338 522.489C433.605 522.82 432.965 523.309 432.407 523.945C431.86 524.58 431.43 525.308 431.127 526.128C430.825 526.962 430.674 527.822 430.674 528.708V547.963C430.674 549.643 430.534 551.297 430.243 552.951C429.952 554.592 429.522 556.193 428.963 557.742C428.393 559.29 427.707 560.759 426.881 562.148C426.067 563.538 425.136 564.835 424.089 566.026C423.042 567.203 421.914 568.262 420.681 569.188C419.459 570.128 418.168 570.909 416.795 571.557C415.434 572.192 414.038 572.682 412.584 573.013C411.142 573.343 409.676 573.502 408.198 573.502H337.353C335.875 573.502 334.421 573.343 332.967 573.013C331.524 572.682 330.117 572.192 328.756 571.557C327.395 570.909 326.103 570.128 324.87 569.188C323.649 568.262 322.509 567.203 321.473 566.026C320.426 564.835 319.496 563.538 318.67 562.148C317.855 560.759 317.158 559.29 316.599 557.742C316.029 556.193 315.599 554.592 315.319 552.951C315.029 551.297 314.877 549.643 314.877 547.963V505.511Z" fill="#232323"/>
<mask id="mask0_8_72" style="mask-type:luminance" maskUnits="userSpaceOnUse" x="0" y="17" width="960" height="809">
<path d="M0 17H960V826H0V17Z" fill="white"/>
</mask>
<g mask="url(#mask0_8_72)">
<path d="M954.213 763.428H919.976C920.032 761.268 919.93 759.109 919.658 756.963C919.385 754.817 918.954 752.711 918.353 750.659C917.763 748.607 917.002 746.635 916.106 744.744C915.198 742.852 914.154 741.068 912.985 739.405C911.805 737.742 910.5 736.213 909.093 734.831C907.674 733.45 906.165 732.229 904.554 731.17C902.953 730.11 901.274 729.238 899.538 728.541C897.801 727.843 896.02 727.333 894.193 727.025C892.91 726.85 891.617 726.783 890.3 726.716C888.882 726.703 887.475 726.555 886.067 726.274C885.126 726.14 884.343 725.657 883.696 724.839C883.809 723.283 884.161 721.821 884.728 720.412C885.511 718.172 886.079 715.852 886.431 713.451C887.883 701.03 878.566 690.863 868.966 689.133C862.827 688.167 856.755 688.543 850.752 690.286C849.89 687.336 848.675 684.599 847.121 682.078C845.577 679.569 843.739 677.37 841.628 675.492C839.518 673.627 837.225 672.165 834.74 671.106C832.255 670.046 829.701 669.443 827.057 669.282C824.425 669.134 821.826 669.443 819.261 670.207C816.708 670.972 814.302 672.165 812.044 673.775C809.786 675.398 807.777 677.37 806.029 679.69C804.27 682.024 802.841 684.599 801.74 687.429L705.78 651.241C711.772 637.882 716.289 623.851 719.33 609.151C722.371 594.463 723.858 579.562 723.767 564.432C723.722 543.936 721.361 523.817 716.686 504.073C712.01 484.329 705.19 465.671 696.236 448.113L643.627 95.658C643.581 95.4031 643.525 95.1349 643.456 94.88C643.456 94.7057 643.366 94.5045 643.309 94.3301C643.252 94.1557 643.139 93.9411 643.048 93.7399C642.957 93.5387 642.878 93.3375 642.787 93.1632C642.696 93.0022 642.594 92.8547 642.48 92.7205C642.356 92.5059 642.219 92.3047 642.072 92.1169L641.72 91.7682C641.55 91.6072 641.402 91.4329 641.232 91.2987C641.085 91.178 640.926 91.0841 640.767 90.9902C640.597 90.8695 640.426 90.7622 640.256 90.6683C640.086 90.6683 639.916 90.5342 639.757 90.4671L639.19 90.2391C639.019 90.2391 638.849 90.2391 638.69 90.2391L638.009 89.9977H364.702C364.021 90.0111 363.374 90.1586 362.738 90.4403C362.114 90.722 361.536 91.111 361.025 91.6341C360.514 92.1572 360.083 92.7608 359.754 93.4448C359.425 94.1423 359.198 94.88 359.084 95.658L306.668 444.975C306.316 445.377 306.009 445.82 305.748 446.303C296.488 464.075 289.452 482.987 284.629 503.053C279.795 523.119 277.367 543.574 277.333 564.432C277.321 573.244 277.775 582.016 278.694 590.761C272.952 586.657 265.099 582.955 257.224 586.697C248.838 590.654 245.32 600.607 242.494 608.601L242.154 609.58C240.599 613.993 237.376 621.33 233.223 621.585C230.942 621.772 228.082 619.693 225.086 617.561C220.592 614.355 214.986 610.371 208.234 612.155C201.255 614.02 195.955 622.081 195.354 631.765C195.263 638.324 196.216 644.655 198.236 650.758L198.52 651.791C199.871 655.962 200.495 660.268 200.393 664.735C197.51 665.016 194.707 664.614 191.984 663.487C191.053 663.112 190.111 662.696 189.158 662.28C184.687 660.308 179.104 657.854 173.168 659.772C165.554 662.253 160.061 671.454 159.971 682.145C159.959 685.994 160.436 689.763 161.4 693.439C160.958 693.063 160.538 692.647 160.141 692.205C156.646 688.476 149.371 680.669 140.894 684.049C137.354 685.766 134.471 688.476 132.27 692.191C131.124 693.774 129.717 695.772 128.934 695.92C128.151 696.081 125.96 693.935 124.292 692.191C121.535 689.267 118.119 685.552 113.421 684.733C111.503 684.385 109.619 684.505 107.747 685.082C105.874 685.659 104.183 686.665 102.674 688.073C100.62 690.005 98.9519 692.312 97.6922 695.021C96.4213 697.731 95.6382 700.628 95.3545 703.7C95.0595 709.507 95.6155 715.208 97.0114 720.788C97.3858 722.599 97.7603 724.409 98.044 726.233C98.9973 732.243 98.305 737.085 96.1716 739.231C94.0382 741.377 90.838 741.431 87.4109 741.806C82.7354 742.182 76.8912 742.678 72.0569 746.943C70.3547 748.513 69.0156 750.444 68.0283 752.711C67.0524 754.991 66.519 757.405 66.4509 759.967C66.4055 761.134 66.4963 762.288 66.7119 763.428H48.4982C47.7266 763.428 46.9889 763.602 46.2853 763.951C45.5704 764.3 44.9463 764.796 44.4016 765.427C43.8569 766.07 43.4483 766.808 43.1533 767.653C42.8582 768.485 42.7107 769.357 42.7107 770.269V818.676C42.7107 819.575 42.8582 820.447 43.1533 821.292C43.4483 822.124 43.8569 822.861 44.4016 823.505C44.9463 824.149 45.5704 824.632 46.2853 824.981C46.9889 825.329 47.7266 825.504 48.4982 825.504H954.213C954.984 825.504 955.722 825.329 956.426 824.981C957.141 824.632 957.765 824.149 958.309 823.505C958.843 822.861 959.263 822.124 959.558 821.292C959.853 820.447 960 819.575 960 818.676V770.269C960 769.357 959.853 768.485 959.558 767.653C959.263 766.808 958.843 766.07 958.309 765.427C957.765 764.796 957.141 764.3 956.426 763.951C955.722 763.602 954.984 763.428 954.213 763.428ZM827.738 682.963C829.429 683.298 831.029 683.942 832.55 684.894C834.059 685.847 835.398 687.067 836.578 688.543C837.747 690.018 838.678 691.681 839.393 693.532C840.096 695.383 840.528 697.315 840.698 699.327C840.72 699.863 840.8 700.387 840.936 700.896C841.072 701.419 841.254 701.902 841.492 702.358C841.719 702.828 841.991 703.257 842.309 703.632C842.627 704.021 842.979 704.357 843.365 704.652C843.75 704.934 844.148 705.175 844.579 705.349C845.01 705.524 845.453 705.631 845.907 705.685C846.36 705.738 846.814 705.725 847.268 705.658C847.711 705.577 848.153 705.443 848.573 705.255C854.599 702.519 860.807 701.621 867.207 702.546C871.111 703.257 875.423 707.388 874.958 711.399C874.708 712.834 874.356 714.242 873.891 715.597C872.745 719.151 871.19 724.034 872.745 729.372C873.664 732.108 875.105 734.402 877.046 736.253C878.998 738.104 881.21 739.271 883.673 739.74C885.716 740.197 887.781 740.438 889.858 740.465C890.868 740.465 891.878 740.465 892.888 740.706C894 740.921 895.089 741.27 896.156 741.712C897.223 742.168 898.244 742.745 899.22 743.416C900.196 744.086 901.115 744.864 901.978 745.736C902.829 746.621 903.612 747.574 904.327 748.62C905.03 749.666 905.654 750.766 906.188 751.946C906.721 753.127 907.164 754.361 907.515 755.622C907.856 756.896 908.105 758.197 908.242 759.525C908.389 760.853 908.435 762.181 908.366 763.522H848.46C849.05 761.885 849.561 760.236 849.992 758.532C850.434 756.842 850.786 755.125 851.081 753.395C851.365 751.651 851.569 749.908 851.705 748.15C851.83 746.38 851.887 744.623 851.864 742.852C851.842 741.082 851.739 739.311 851.558 737.568C851.388 735.81 851.127 734.067 850.798 732.336C850.468 730.62 850.06 728.916 849.572 727.239C849.095 725.563 848.539 723.926 847.915 722.317C847.291 720.707 846.599 719.138 845.827 717.622C845.067 716.093 844.238 714.631 843.353 713.209C842.457 711.788 841.503 710.419 840.493 709.118C839.472 707.817 838.405 706.57 837.293 705.403C836.17 704.236 835.001 703.136 833.775 702.103C832.561 701.071 831.302 700.118 829.997 699.246C828.691 698.375 827.352 697.583 825.991 696.872C824.618 696.161 823.21 695.531 821.792 694.994L812.918 691.655C813.678 690.179 814.608 688.865 815.687 687.711C816.776 686.544 817.968 685.578 819.273 684.814C820.589 684.036 821.962 683.499 823.403 683.191C824.833 682.869 826.286 682.802 827.738 682.963ZM624.21 443.687L573.393 103.679H632.993L683.822 443.687H624.21ZM369.491 103.679H561.637L612.453 443.687H318.662L369.491 103.679ZM313.681 457.382H687.453C695.51 473.598 701.638 490.794 705.826 508.928C710.024 527.076 712.146 545.559 712.181 564.365C712.181 615.83 694.194 661.636 660.161 696.644C659.582 697.248 659.128 697.945 658.788 698.764C658.447 699.582 658.254 700.44 658.198 701.339C658.152 702.238 658.243 703.123 658.493 703.981C658.731 704.84 659.105 705.604 659.616 706.288C660.115 706.972 660.717 707.509 661.398 707.911C662.09 708.314 662.816 708.555 663.577 708.609C664.348 708.676 665.086 708.568 665.812 708.273C666.55 707.992 667.197 707.549 667.775 706.945C680.236 694.243 690.903 679.69 699.788 663.313L818.365 707.925C820.725 708.797 822.972 709.99 825.094 711.493C827.216 712.981 829.168 714.765 830.927 716.804C832.697 718.856 834.241 721.11 835.557 723.591C836.873 726.073 837.917 728.702 838.712 731.465C839.177 733.114 839.552 734.804 839.835 736.508C838.905 734.778 837.872 733.155 836.749 731.599C822.064 711.412 794.715 710.406 793.558 710.352C792.786 710.326 792.048 710.473 791.334 710.795C790.619 711.117 789.983 711.586 789.427 712.217C788.871 712.834 788.44 713.558 788.122 714.39C787.816 715.221 787.657 716.08 787.645 716.992C787.623 717.891 787.748 718.762 788.02 719.607C788.292 720.466 788.701 721.217 789.223 721.874C789.745 722.531 790.358 723.041 791.061 723.417C791.753 723.792 792.491 723.994 793.263 724.02C793.478 724.02 816.674 724.973 827.965 740.532C830.223 743.724 831.869 747.292 832.936 751.262C833.991 755.219 834.366 759.27 834.07 763.415H575.844C585.899 760.102 595.749 756.131 605.418 751.49C606.133 751.155 606.757 750.672 607.313 750.028C607.857 749.398 608.277 748.66 608.584 747.815C608.879 746.984 609.038 746.112 609.038 745.2C609.049 744.301 608.901 743.416 608.618 742.584C608.323 741.739 607.903 741.001 607.369 740.357C606.825 739.7 606.201 739.204 605.497 738.855C604.782 738.506 604.044 738.319 603.273 738.319C602.512 738.319 601.764 738.48 601.06 738.828C568.468 754.522 530.804 763.146 492.164 763.415H397.554L422.259 757.969C424.688 757.419 427.048 756.628 429.363 755.595C431.667 754.562 433.891 753.301 436.013 751.812C438.135 750.337 440.144 748.647 442.016 746.756C443.9 744.864 445.625 742.799 447.214 740.559C448.791 738.319 450.187 735.931 451.424 733.396C452.649 730.874 453.693 728.245 454.545 725.496C455.384 722.76 456.031 719.956 456.474 717.086C456.905 714.215 457.143 711.332 457.155 708.408L460.037 708.649H494.796C509.572 707.375 524.846 706.02 539.462 700.051C556.507 693.09 569.421 680.629 576.083 664.909C584.185 645.607 581.178 622.081 568.933 609.017C558.436 597.817 543.866 596.006 532.37 595.765C530.373 595.765 528.353 595.765 526.344 595.644C516.8 595.644 507.779 595.456 499.71 591.754C493.627 588.977 487.76 582.673 485.831 575.605C496.283 572.842 503.75 565.625 503.75 557.135C503.75 546.284 491.528 537.485 476.458 537.485C461.388 537.485 449.166 546.324 449.166 557.135C449.166 566.122 457.495 573.673 468.889 576.047C467.618 579.669 465.779 582.848 463.385 585.571C460.99 588.307 458.244 590.372 455.135 591.754C447.089 595.456 438.056 595.563 428.512 595.644C426.492 595.644 424.483 595.644 422.486 595.765C410.991 596.073 396.431 597.964 385.923 609.017C374.189 621.558 370.943 643.636 377.843 662.481L318.061 671.709C318.072 671.683 318.072 671.642 318.061 671.602C298.803 641.141 289.033 605.087 289.033 564.418C289.055 545.613 291.166 527.143 295.342 508.995C299.53 490.847 305.635 473.665 313.681 457.449V457.382ZM249.643 763.428C247.68 757.419 236.219 718.977 252.208 687.738C261.366 669.832 279.262 658.672 294.23 652.059C297.407 659.584 301.016 666.814 305.056 673.748L297.362 674.942C296.624 675.103 295.944 675.411 295.319 675.881C294.684 676.35 294.151 676.94 293.719 677.651C293.277 678.349 292.959 679.14 292.777 679.985C292.596 680.844 292.55 681.702 292.653 682.574C292.743 683.446 292.97 684.264 293.333 685.029C293.697 685.793 294.173 686.45 294.752 687C295.319 687.564 295.966 687.966 296.681 688.234C297.385 688.489 298.111 688.583 298.86 688.516L410.298 671.253C414.077 670.703 417.822 670.972 421.522 672.031C425.221 673.104 428.648 674.902 431.792 677.437L402.423 683.701C401.719 683.862 401.061 684.17 400.46 684.626C399.847 685.069 399.336 685.632 398.905 686.316C398.474 686.987 398.167 687.738 397.963 688.543C397.77 689.361 397.702 690.193 397.77 691.024C397.838 691.869 398.02 692.674 398.337 693.425C398.655 694.19 399.075 694.86 399.597 695.437C400.119 696.014 400.709 696.456 401.379 696.778C402.037 697.087 402.729 697.248 403.444 697.275C403.796 697.315 404.136 697.315 404.477 697.275L441.279 689.428C443.446 693.774 444.797 698.455 445.341 703.458C445.455 704.41 445.512 705.376 445.546 706.328L409.629 710.379C408.891 710.473 408.199 710.728 407.552 711.13C406.905 711.546 406.338 712.083 405.861 712.74C405.385 713.411 405.021 714.148 404.783 714.967C404.545 715.798 404.443 716.643 404.477 717.515C404.511 718.373 404.681 719.205 404.987 719.996C405.282 720.801 405.702 721.499 406.224 722.102C406.758 722.706 407.359 723.175 408.04 723.511C408.721 723.846 409.436 724.02 410.162 724.034H410.752L443.923 720.211C443.015 723.296 441.789 726.18 440.246 728.876C438.703 731.585 436.887 734 434.799 736.132C432.711 738.265 430.43 740.049 427.945 741.471C425.471 742.893 422.872 743.912 420.16 744.529L334.346 763.415L249.643 763.428ZM389.146 658.873C383.403 645.138 385.401 628.103 393.696 619.197C401.367 610.988 413.26 609.647 422.77 609.379H428.603C438.793 609.379 449.29 609.151 459.322 604.563C463.078 602.847 466.494 600.473 469.592 597.455C472.69 594.423 475.3 590.896 477.434 586.872C479.556 590.909 482.166 594.437 485.264 597.455C488.362 600.486 491.778 602.847 495.534 604.563C505.543 609.151 516.119 609.271 526.231 609.379H532.098C541.607 609.647 553.489 610.988 561.16 619.197C569.512 628.036 571.464 645.138 565.711 658.873C558.652 675.666 543.866 683.808 535.763 687.148C522.656 692.513 508.21 693.774 494.24 695.008H484.504C485.343 693.385 485.922 691.641 486.24 689.777C486.558 687.912 486.592 686.035 486.353 684.157C486.104 682.265 485.604 680.495 484.821 678.818C484.05 677.155 483.062 675.693 481.848 674.432C479.783 672.568 477.502 671.213 474.994 670.368C474.415 670.127 473.836 669.899 473.269 669.644C472.77 669.416 472.316 669.121 471.885 668.732C471.885 668.396 472.077 667.954 472.168 667.632C472.429 666.679 472.679 665.727 472.86 664.775C473.269 662.334 473.246 659.892 472.781 657.465C472.316 655.037 471.453 652.824 470.205 650.825C468.594 648.236 466.608 646.117 464.27 644.481C461.932 642.844 459.402 641.812 456.701 641.382C451.401 640.685 446.181 641.141 441.018 642.737C440.416 639.491 439.361 636.473 437.863 633.656C436.365 630.853 434.504 628.425 432.291 626.373C431.304 625.542 430.26 624.817 429.17 624.2C428.069 623.583 426.935 623.087 425.754 622.711C424.586 622.336 423.394 622.094 422.191 621.96C420.977 621.84 419.763 621.84 418.56 621.974C417.346 622.108 416.154 622.363 414.985 622.738C413.816 623.114 412.681 623.623 411.581 624.24C410.48 624.857 409.447 625.582 408.46 626.427C407.473 627.258 406.553 628.197 405.714 629.23C400.096 636.433 400.868 649.256 404.284 658.404L390.065 660.617C389.702 660.027 389.407 659.45 389.146 658.873ZM417.221 657.438C417.028 656.995 416.801 656.593 416.528 656.217C413.215 651.791 412.205 641.074 414.191 638.539C414.928 637.694 415.768 637.023 416.699 636.513C417.629 636.004 418.605 635.695 419.626 635.588C420.648 635.481 421.658 635.575 422.656 635.883C423.644 636.178 424.574 636.661 425.425 637.345C429.17 640.618 430.362 647.351 430.759 652.462C430.804 652.998 430.895 653.521 431.043 654.031C431.19 654.541 431.394 655.023 431.633 655.493C431.882 655.949 432.166 656.365 432.495 656.74C432.824 657.116 433.176 657.438 433.573 657.72C433.97 657.988 434.379 658.202 434.822 658.363C435.253 658.524 435.707 658.632 436.161 658.658C436.615 658.699 437.069 658.672 437.522 658.578C437.976 658.484 438.408 658.337 438.827 658.122C444.059 655.345 449.529 654.313 455.225 654.997C457.495 655.399 459.311 656.673 460.695 658.833C461.353 659.745 461.603 660.791 461.444 661.971C461.353 662.468 461.229 662.951 461.081 663.42C460.321 665.727 460.026 668.115 460.185 670.583C460.695 675.72 463.929 679.999 468.911 682.386C469.66 682.748 470.409 683.057 471.181 683.365C472.304 683.714 473.36 684.251 474.336 684.975C474.608 685.377 474.744 685.82 474.756 686.33C474.756 686.826 474.631 687.282 474.381 687.684C474.12 688.087 473.791 688.355 473.382 688.489C472.963 688.623 472.565 688.596 472.168 688.409C470.75 687.349 469.218 686.678 467.561 686.397C465.904 686.128 464.27 686.263 462.658 686.812C459.787 687.684 457.132 689.106 454.681 691.105C453.296 686.477 451.378 682.185 448.916 678.242C448.666 677.772 448.383 677.343 448.053 676.954C446.204 674.137 444.116 671.589 441.801 669.282C439.497 666.988 437 665.003 434.345 663.313C431.678 661.636 428.887 660.295 425.993 659.302C423.088 658.31 420.126 657.693 417.107 657.438H417.221ZM78.1508 760.49C78.1962 759.444 78.5593 758.572 79.2289 757.888C81.3056 756.051 84.8462 755.675 88.4208 755.447C93.5388 755.031 99.3718 754.213 103.922 749.599C109.358 744.086 111.412 734.898 109.54 723.725C109.199 721.673 108.791 719.634 108.382 717.582C107.315 713.531 106.85 709.387 106.952 705.135C107.202 702.64 108.132 700.588 109.767 698.965C110.289 698.375 110.913 698.12 111.639 698.24C113.602 699.152 115.293 700.507 116.723 702.331C120.059 705.846 124.587 710.648 131.01 709.387C136.049 708.394 139.101 704.062 141.326 700.896C142.245 699.313 143.391 697.999 144.776 696.98C146.807 696.148 151.096 700.762 152.504 702.291C157.724 707.898 165.883 712.297 173.1 707.858C173.747 707.455 174.326 706.932 174.803 706.275C175.291 705.618 175.665 704.88 175.903 704.062C176.153 703.243 176.266 702.385 176.232 701.513C176.21 700.655 176.051 699.81 175.756 699.018C173.69 693.492 171.58 687.765 171.671 682.306C171.671 678.416 173.543 673.842 176.357 672.903C178.672 672.152 181.861 673.547 185.22 675.116C186.31 675.599 187.376 676.069 188.443 676.484C190.315 677.236 200.404 680.911 206.918 676.377C208.155 675.559 209.187 674.472 210.027 673.131C210.855 671.776 211.412 670.274 211.695 668.638C212.989 661.153 211.298 653.87 209.596 647.646L209.324 646.587C207.814 642.16 207.031 637.56 206.974 632.785C207.19 629.297 208.847 626.024 210.833 625.515C212.819 625.005 215.815 626.95 219.094 629.297C223.248 632.261 227.968 635.615 233.801 635.266C239.305 634.958 247.079 631.148 252.843 614.878L253.195 613.886C255.385 607.675 257.655 601.237 261.525 599.413C266.302 597.2 272.873 602.256 278.082 606.964C279.001 607.796 280.045 608.265 281.202 608.359C283.143 619.063 285.855 629.485 289.35 639.612C272.725 647.07 252.923 659.825 242.244 680.696C225.937 712.499 233.336 749.103 237.285 763.455H79.7055C79.3991 762.301 78.8884 761.322 78.1508 760.49ZM948.414 811.822H54.2971V777.109H948.414V811.822Z" fill="#232323"/>
</g>
<path d="M225.992 737.38C225.225 737.598 224.57 737.888 224.004 738.259C223.45 738.629 223.022 739.043 222.758 739.507C222.481 739.972 222.381 740.451 222.431 740.937C222.494 741.431 222.708 741.896 223.085 742.331C223.312 742.593 223.35 742.861 223.199 743.137C223.048 743.413 222.746 743.616 222.305 743.762C221.865 743.9 221.399 743.929 220.908 743.849C220.43 743.776 220.065 743.609 219.801 743.362C219.398 742.97 218.882 742.644 218.265 742.36C217.649 742.085 216.957 741.874 216.214 741.743C215.459 741.605 214.692 741.555 213.911 741.584C213.118 741.613 212.376 741.714 211.659 741.903C210.941 742.092 210.3 742.346 209.746 742.665C209.192 742.985 208.752 743.348 208.437 743.762C208.11 744.175 207.921 744.611 207.883 745.061C207.833 745.511 207.921 745.954 208.16 746.39C208.085 746.912 207.632 747.283 206.789 747.486C204.913 747.733 203.29 747.457 201.944 746.666C200.043 745.489 198.999 744.103 198.797 742.498C198.697 742.012 198.432 741.555 198.017 741.126C197.589 740.698 197.048 740.335 196.381 740.03C195.714 739.725 194.959 739.507 194.141 739.377C193.323 739.246 192.493 739.21 191.637 739.268C190.794 739.326 190.001 739.478 189.258 739.718C188.516 739.965 187.887 740.277 187.358 740.662C186.83 741.054 186.465 741.482 186.226 741.954C185.999 742.426 185.949 742.912 186.049 743.399C186.616 746.76 188.969 749.642 193.109 752.038C194.796 752.974 196.734 753.7 198.898 754.216C201.075 754.724 203.34 754.993 205.681 755C207.607 755 209.456 754.811 211.256 754.426C214.314 753.766 216.743 752.648 218.542 751.065C221.978 751.486 225.25 751.218 228.358 750.267C230.007 749.729 231.429 749.04 232.624 748.19C233.82 747.341 234.701 746.404 235.28 745.359C235.858 744.321 236.085 743.261 235.972 742.172C235.846 741.083 235.38 740.044 234.587 739.05C234.21 738.614 233.694 738.237 233.052 737.91C232.41 737.591 231.693 737.351 230.888 737.191C230.082 737.039 229.252 736.974 228.409 737.01C227.553 737.039 226.747 737.162 225.992 737.38Z" fill="#232323"/>
<path d="M589 510H572.445L555 567H571.567L589 510Z" fill="white" fill-opacity="0.5"/>
<path d="M624 510H590.779L572 567H602.266C603.685 567 605.092 566.839 606.486 566.533C607.88 566.226 609.235 565.758 610.552 565.145C611.855 564.531 613.107 563.772 614.294 562.881C615.469 561.989 616.566 560.967 617.573 559.828C618.579 558.688 619.47 557.461 620.27 556.117C621.057 554.788 621.716 553.371 622.271 551.895C622.813 550.405 623.226 548.872 623.497 547.294C623.781 545.716 623.91 544.124 623.91 542.517L624 510Z" fill="white" fill-opacity="0.5"/>
<path d="M388 510H370.933L353 567H370.054L388 510Z" fill="white" fill-opacity="0.5"/>
<path d="M421 510H399.917L388 567H407.199C408.108 567 409.001 566.839 409.885 566.533C410.77 566.226 411.63 565.758 412.457 565.145C413.293 564.531 414.087 563.772 414.832 562.881C415.586 561.989 416.282 560.967 416.921 559.828C417.56 558.688 418.125 557.461 418.625 556.117C419.124 554.788 419.55 553.371 419.894 551.895C420.238 550.405 420.5 548.872 420.681 547.294C420.853 545.716 420.943 544.124 420.943 542.517L421 510Z" fill="white" fill-opacity="0.5"/>
</svg>
